<svg width="84" height="100" fill="none" xmlns="http://www.w3.org/2000/svg"><path d="M46.683 17.523c0-.81-.655-1.465-1.465-1.465H38.71c-.81 0-1.465.656-1.465 1.465V29.24c0 .81.656 1.465 1.465 1.465h6.51c.809 0 1.464-.656 1.464-1.465V17.523zm-2.93 10.253h-3.58v-8.789h3.58v8.789z" fill="url(#paint0_linear)"/><path d="M46.683 44.43c0-.808-.655-1.464-1.465-1.464H38.71c-.81 0-1.465.656-1.465 1.465v11.718c0 .808.656 1.465 1.465 1.465h6.51c.809 0 1.464-.657 1.464-1.465V44.43zm-2.93 10.254h-3.58v-8.788h3.58v8.788z" fill="url(#paint1_linear)"/><path d="M45.218 69.873H38.71c-.81 0-1.465.656-1.465 1.465v11.718c0 .81.656 1.465 1.465 1.465h6.51c.809 0 1.464-.656 1.464-1.465V71.338c0-.809-.655-1.465-1.465-1.465zm-1.465 11.718h-3.58v-8.788h3.58v8.788z" fill="url(#paint2_linear)"/><path d="M81.87 38.032c1.13 0 2.05-.92 2.05-2.051v-5.207c0-1.13-.92-2.05-2.05-2.05h-1.625V12.726a2.64 2.64 0 00-2.636-2.637h-20.02a1.465 1.465 0 000 2.93h19.727v15.703h-2.51v-6.028a2.249 2.249 0 00-2.246-2.246h-9.337a2.249 2.249 0 00-2.246 2.246v6.028h-1.92c-1.131 0-2.05.92-2.05 2.05v5.208c0 1.13.919 2.05 2.05 2.05h18.259v16.334h-2.51v-6.027a2.248 2.248 0 00-2.246-2.246h-9.337a2.248 2.248 0 00-2.246 2.246v6.027h-1.92c-1.131 0-2.05.92-2.05 2.051v5.207c0 1.131.919 2.05 2.05 2.05h18.259v16.334h-2.51V73.98a2.249 2.249 0 00-2.246-2.246h-9.337a2.249 2.249 0 00-2.246 2.246v6.028h-1.92c-1.131 0-2.05.92-2.05 2.051v5.207c0 1.13.919 2.05 2.05 2.05h18.259v7.755H52.868V83.057a1.464 1.464 0 10-2.93 0V97.07H33.99V23.365a1.465 1.465 0 10-2.93 0V97.07H6.613v-7.754H24.87c1.132 0 2.051-.92 2.051-2.051v-5.207c0-1.13-.92-2.05-2.05-2.05H22.95v-6.029a2.249 2.249 0 00-2.246-2.246h-9.337a2.248 2.248 0 00-2.246 2.246v6.028h-2.51V63.674h18.26c1.13 0 2.05-.92 2.05-2.05v-5.208c0-1.131-.92-2.05-2.05-2.05H22.95v-6.028a2.248 2.248 0 00-2.246-2.246h-9.337a2.248 2.248 0 00-2.246 2.246v6.027h-2.51V38.032h18.26c1.13 0 2.05-.92 2.05-2.051v-5.207c0-1.13-.92-2.05-2.05-2.05H22.95v-6.029a2.249 2.249 0 00-2.246-2.246h-9.337a2.248 2.248 0 00-2.246 2.246v6.028h-2.51V13.02H31.06v4.486a1.465 1.465 0 102.93 0V2.93h15.95v74.267a1.465 1.465 0 002.93 0V2.247A2.249 2.249 0 0050.621 0H33.306a2.249 2.249 0 00-2.247 2.246v7.844H6.32a2.64 2.64 0 00-2.636 2.637v15.996H2.059c-1.131 0-2.051.92-2.051 2.05v5.208c0 1.13.92 2.05 2.05 2.05h1.625v16.334H2.059c-1.131 0-2.051.92-2.051 2.051v5.207c0 1.131.92 2.05 2.05 2.05h1.625v16.334H2.059c-1.131 0-2.051.92-2.051 2.051v5.207c0 1.13.92 2.05 2.05 2.05h1.625v8.048A2.64 2.64 0 006.32 100h71.289a2.64 2.64 0 002.636-2.637v-8.047h1.625c1.13 0 2.05-.92 2.05-2.051v-5.207c0-1.13-.92-2.05-2.05-2.05h-1.625V63.673h1.625c1.13 0 2.05-.92 2.05-2.05v-5.208c0-1.131-.92-2.05-2.05-2.05h-1.625V38.031h1.625zM12.052 23.379h7.97v5.344h-7.97V23.38zm-9.114 8.274h21.054v3.45H2.937v-3.45zm9.114 17.368h7.97v5.344h-7.97v-5.344zm-9.114 8.274h21.054v3.449H2.937v-3.449zm9.114 17.368h7.97v5.344h-7.97v-5.344zm-9.114 8.274h21.054v3.45H2.937v-3.45zm60.969-8.274h7.97v5.344h-7.97v-5.344zm17.084 11.723H59.935v-3.45h21.056v3.45zM63.907 49.021h7.97v5.344h-7.97v-5.344zm17.084 11.723H59.935v-3.449h21.056v3.449zM63.907 23.379h7.97v5.344h-7.97V23.38zm-3.972 8.274h21.056v3.45H59.935v-3.45z" fill="url(#paint3_linear)"/><defs><linearGradient id="paint0_linear" x1="41.964" y1="16.058" x2="41.964" y2="30.705" gradientUnits="userSpaceOnUse"><stop stop-color="#FE8338"/><stop offset="1" stop-color="#FD6326"/></linearGradient><linearGradient id="paint1_linear" x1="41.964" y1="42.966" x2="41.964" y2="57.614" gradientUnits="userSpaceOnUse"><stop stop-color="#FE8338"/><stop offset="1" stop-color="#FD6326"/></linearGradient><linearGradient id="paint2_linear" x1="41.964" y1="69.873" x2="41.964" y2="84.521" gradientUnits="userSpaceOnUse"><stop stop-color="#FE8338"/><stop offset="1" stop-color="#FD6326"/></linearGradient><linearGradient id="paint3_linear" x1="41.964" y1="0" x2="41.964" y2="100" gradientUnits="userSpaceOnUse"><stop stop-color="#FE8338"/><stop offset="1" stop-color="#FD6326"/></linearGradient></defs></svg>