<svg width="42" height="41" viewBox="0 0 42 41" fill="none" xmlns="http://www.w3.org/2000/svg">
<path d="M32.9105 5.58217L32.9118 5.58135C32.9135 5.58063 32.9153 5.5799 32.9177 5.57929C33.039 5.5104 33.1763 5.47007 33.3177 5.4443C33.3612 5.43585 33.4013 5.43274 33.4443 5.42913C33.551 5.41968 33.659 5.42256 33.769 5.43903C33.8096 5.44424 33.8487 5.44586 33.8895 5.45549C33.9105 5.45989 33.9305 5.4586 33.9508 5.46394C34.0748 5.49759 34.1908 5.54822 34.2967 5.61097C34.3081 5.61665 34.3158 5.62704 34.327 5.63377C34.4429 5.70629 34.5404 5.7958 34.6259 5.89542C34.6378 5.90942 34.6559 5.91706 34.6677 5.93159L39.9134 12.6843C40.3151 13.2011 40.1821 13.8833 39.6144 14.2085C39.0475 14.5329 38.2621 14.3766 37.8595 13.8585L35.0309 10.2184C34.7026 14.6027 32.9265 18.6081 32.8409 18.7968C27.7827 31.2517 13.9081 37.9092 1.9118 33.6379C1.31786 33.4263 0.978527 32.8787 1.08756 32.3582C1.09923 32.3025 1.11562 32.2478 1.13695 32.1931C1.36638 31.6292 2.08372 31.3616 2.74063 31.5946C13.4259 35.3993 25.8623 29.2785 30.4769 17.9178C30.5009 17.8664 32.3381 13.7285 32.5517 9.51485L28.9327 13.4599C28.508 13.922 27.7178 13.972 27.1669 13.5731C26.6149 13.1746 26.5146 12.478 26.9359 12.0135L32.6406 5.79488C32.719 5.71096 32.8101 5.6401 32.9105 5.58217Z" fill="#C4C4C4"/>
</svg>
