<svg width="91" height="91" viewBox="0 0 91 91" fill="none" xmlns="http://www.w3.org/2000/svg">
<path d="M36.3355 79.175L36.3357 79.1779C36.3367 79.1813 36.3376 79.1848 36.3393 79.189C36.3724 79.4469 36.4659 79.6966 36.5856 79.9361C36.6216 80.0103 36.6619 80.0736 36.7046 80.1416C36.8099 80.3112 36.9349 80.4689 37.0826 80.6145C37.1357 80.6691 37.1819 80.7256 37.2419 80.7756C37.2719 80.802 37.2924 80.8333 37.323 80.8575C37.5119 81.0046 37.7171 81.1209 37.929 81.2085C37.9503 81.2191 37.9744 81.219 37.9969 81.2281C38.2346 81.3197 38.477 81.3648 38.7211 81.3808C38.7553 81.3829 38.7869 81.4014 38.8217 81.4026L54.752 81.6661C55.9714 81.6866 56.8392 80.7253 56.6889 79.5155C56.5381 78.308 55.4267 77.3124 54.2044 77.2921L45.616 77.1488C51.782 71.7554 55.7639 64.6285 55.9495 64.2897C68.851 42.8205 63.2516 14.6984 43.4681 1.59993C42.4884 0.951551 41.2928 1.05842 40.6391 1.80319C40.5692 1.88286 40.506 1.96846 40.4483 2.0615C39.8646 3.03413 40.2683 4.40239 41.3503 5.12064C58.9723 16.7874 63.7625 42.166 51.9953 61.7502C51.9454 61.8435 47.8345 69.2098 41.7945 74.2415L43.6251 64.4357C43.8386 63.2859 43.0292 62.0525 41.8186 61.6778C40.6072 61.301 39.457 61.9307 39.2362 63.0781L36.3506 78.5349C36.3133 78.7457 36.3095 78.9606 36.3355 79.175Z" fill="#141516"/>
</svg>
