<svg width="70" height="100" fill="none" xmlns="http://www.w3.org/2000/svg"><path d="M63.368 0H6.633v3.061h56.735V0z" fill="url(#paint0_linear)"/><path d="M8.878 4.388v3.061h2.908V23.01h3.061V7.45H33.47v42.96h3.06V7.448h18.623v42.96h3.062V7.448h2.908v-3.06H8.878z" fill="url(#paint1_linear)"/><path d="M58.215 50.408h-3.062V54h3.062v-3.592z" fill="url(#paint2_linear)"/><path d="M33.47 50l.03 3.5h3.03v-3.092L35 40.5 33.47 50z" fill="url(#paint3_linear)"/><path d="M15 33h-3v21h3V33z" fill="url(#paint4_linear)"/><path d="M65.442 89.376v-12.31a4.537 4.537 0 003-4.264 4.538 4.538 0 00-3-4.264v-9.354h-3.06v9.354c-1.748.63-3 2.303-3 4.264a4.538 4.538 0 003 4.264v12.31H50.986v-12.31a4.54 4.54 0 003-4.264 4.538 4.538 0 00-3-4.264v-12.31H70v-3.06H0v3.06h4.558v12.31a4.54 4.54 0 00-3 4.264 4.538 4.538 0 003 4.264v12.31H0v1.531C0 95.921 4.08 100 9.093 100h51.814C65.921 100 70 95.92 70 90.907v-1.531h-4.558zm-1.53-18.043c.81 0 1.469.659 1.469 1.47a1.47 1.47 0 01-2.939-.001c0-.81.66-1.47 1.47-1.47zm-14.456 0c.81 0 1.47.66 1.47 1.47a1.47 1.47 0 01-2.94-.001c0-.81.66-1.47 1.47-1.47zM36.53 77.066a4.538 4.538 0 003-4.264 4.538 4.538 0 00-3-4.264v-12.31h11.394v12.31a4.54 4.54 0 00-3 4.264 4.538 4.538 0 003 4.264v12.31H36.531v-12.31zM35 71.333c.81 0 1.47.659 1.47 1.47a1.47 1.47 0 01-2.939 0c0-.811.659-1.47 1.469-1.47zm-12.925 5.733a4.538 4.538 0 003-4.264 4.538 4.538 0 00-3-4.264v-12.31h11.394v12.31a4.54 4.54 0 00-3 4.264 4.538 4.538 0 003 4.264v12.31H22.075v-12.31zm-1.53-5.733c.81 0 1.469.66 1.469 1.47a1.47 1.47 0 01-2.939-.001c0-.81.66-1.47 1.47-1.47zM7.618 77.066a4.537 4.537 0 003-4.264 4.538 4.538 0 00-3-4.263v-12.31h11.395v12.31a4.537 4.537 0 00-3 4.263 4.538 4.538 0 003 4.264v12.31H7.619v-12.31zm-1.53-5.733c.81 0 1.469.659 1.469 1.47a1.47 1.47 0 01-2.939-.001c0-.81.66-1.47 1.47-1.47zm54.818 25.606H9.093a6.043 6.043 0 01-5.835-4.502h63.484a6.043 6.043 0 01-5.835 4.502z" fill="url(#paint5_linear)"/><path d="M62.381 59.184h3.061v-2.956h-3.06v2.956z" fill="url(#paint6_linear)"/><path d="M14.846 26.582h-3.06v3.06h3.06v-3.06z" fill="url(#paint7_linear)"/><path d="M25.093 19.136l-7.61 10.867 2.508 1.756 7.61-10.867-2.508-1.756z" fill="url(#paint8_linear)"/><path d="M28.035 24.568l-7.61 10.867 2.509 1.756 7.609-10.867-2.508-1.756z" fill="url(#paint9_linear)"/><path d="M47.07 19.134L39.46 30l2.508 1.756 7.61-10.867-2.509-1.756z" fill="url(#paint10_linear)"/><path d="M50.017 24.569l-7.61 10.867 2.508 1.756 7.61-10.867-2.508-1.756z" fill="url(#paint11_linear)"/><defs><linearGradient id="paint0_linear" x1="35" y1="0" x2="35" y2="3.061" gradientUnits="userSpaceOnUse"><stop stop-color="#FE8338"/><stop offset="1" stop-color="#FD6326"/></linearGradient><linearGradient id="paint1_linear" x1="35" y1="4.388" x2="35" y2="54" gradientUnits="userSpaceOnUse"><stop stop-color="#FE8338"/><stop offset="1" stop-color="#FD6326"/></linearGradient><linearGradient id="paint2_linear" x1="35" y1="4.388" x2="35" y2="54" gradientUnits="userSpaceOnUse"><stop stop-color="#FE8338"/><stop offset="1" stop-color="#FD6326"/></linearGradient><linearGradient id="paint3_linear" x1="35" y1="4.388" x2="35" y2="54" gradientUnits="userSpaceOnUse"><stop stop-color="#FE8338"/><stop offset="1" stop-color="#FD6326"/></linearGradient><linearGradient id="paint4_linear" x1="13.5" y1="33" x2="13.5" y2="54" gradientUnits="userSpaceOnUse"><stop stop-color="#FE8338"/><stop offset="1" stop-color="#FD6326"/></linearGradient><linearGradient id="paint5_linear" x1="35" y1="53.167" x2="35" y2="100" gradientUnits="userSpaceOnUse"><stop stop-color="#FE8338"/><stop offset="1" stop-color="#FD6326"/></linearGradient><linearGradient id="paint6_linear" x1="35" y1="53.167" x2="35" y2="100" gradientUnits="userSpaceOnUse"><stop stop-color="#FE8338"/><stop offset="1" stop-color="#FD6326"/></linearGradient><linearGradient id="paint7_linear" x1="13.316" y1="26.582" x2="13.316" y2="29.643" gradientUnits="userSpaceOnUse"><stop stop-color="#FE8338"/><stop offset="1" stop-color="#FD6326"/></linearGradient><linearGradient id="paint8_linear" x1="21.288" y1="24.57" x2="23.796" y2="26.326" gradientUnits="userSpaceOnUse"><stop stop-color="#FE8338"/><stop offset="1" stop-color="#FD6326"/></linearGradient><linearGradient id="paint9_linear" x1="24.23" y1="30.002" x2="26.738" y2="31.758" gradientUnits="userSpaceOnUse"><stop stop-color="#FE8338"/><stop offset="1" stop-color="#FD6326"/></linearGradient><linearGradient id="paint10_linear" x1="43.265" y1="24.567" x2="45.773" y2="26.323" gradientUnits="userSpaceOnUse"><stop stop-color="#FE8338"/><stop offset="1" stop-color="#FD6326"/></linearGradient><linearGradient id="paint11_linear" x1="46.212" y1="30.002" x2="48.72" y2="31.758" gradientUnits="userSpaceOnUse"><stop stop-color="#FE8338"/><stop offset="1" stop-color="#FD6326"/></linearGradient></defs></svg>