<svg width="99" height="62" fill="none" xmlns="http://www.w3.org/2000/svg"><path d="M99 14.105V3.279H88.475V.984A.986.986 0 0087.488 0a.986.986 0 00-.987.984V3.28H12.5V.984A.986.986 0 0011.512 0a.986.986 0 00-.987.984V3.28H0v10.826h10.525v2.952H0v10.826h10.525v5.905H0v6.397h5.263v20.83a.986.986 0 001.974 0v-20.83h3.288v14.598c0 .544.442.984.987.984.545 0 .986-.44.986-.984V40.185h74.003v14.598c0 .544.442.984.987.984.545 0 .987-.44.987-.984V40.185h3.289v20.83a.986.986 0 001.973.001V40.185H99v-6.397H88.475v-5.905H99V17.057H88.475v-2.952H99zM1.974 5.248h95.052v6.889H1.974v-6.89zm95.052 32.968H1.974v-2.46h95.052v2.46zm-10.525-4.428H12.498v-5.905h74.003v5.905zm10.525-7.873H1.974v-6.89h95.052v6.89zm-10.525-8.858H12.498v-2.952h74.003v2.952z" fill="url(#paint0_linear)"/><defs><linearGradient id="paint0_linear" x1="49.5" y1="0" x2="49.5" y2="62" gradientUnits="userSpaceOnUse"><stop stop-color="#FE8338"/><stop offset="1" stop-color="#FD6326"/></linearGradient></defs></svg>