<svg width="60" height="100" fill="none" xmlns="http://www.w3.org/2000/svg"><path d="M54.678 46.529h-1.572v11.168h1.572V46.529z" fill="url(#paint0_linear)"/><path d="M0 0v100h60V0H0zm29.214 27.74H1.571V5.77h27.643v21.968zM1.571 52.798h3.751v4.898h1.572v-4.898h22.32v21.968H1.571V52.8zm5.323-1.546V46.53H5.322v4.724h-3.75V29.285h27.642v21.968H6.894zM1.57 98.454v-22.14h27.643v22.141H1.571zm56.858 0H30.786V5.771h27.643v92.683zM1.57 4.225v-2.68h56.86v2.68H1.57z" fill="url(#paint1_linear)"/><defs><linearGradient id="paint0_linear" x1="53.892" y1="46.529" x2="53.892" y2="57.697" gradientUnits="userSpaceOnUse"><stop stop-color="#FE8338"/><stop offset="1" stop-color="#FD6326"/></linearGradient><linearGradient id="paint1_linear" x1="30" y1="0" x2="30" y2="100" gradientUnits="userSpaceOnUse"><stop stop-color="#FE8338"/><stop offset="1" stop-color="#FD6326"/></linearGradient></defs></svg>