<svg width="30" height="30" viewBox="0 0 30 30" fill="none" xmlns="http://www.w3.org/2000/svg">
<circle cx="15" cy="15" r="15" fill="url(#paint0_linear)"/>
<path d="M22.3408 9.85425H7.65919C7.29513 9.85425 7 10.1494 7 10.5134V19.4867C7 19.8508 7.29513 20.1459 7.65919 20.1459H22.3408C22.7049 20.1459 23 19.8508 23 19.4867V10.5134C23 10.1494 22.7049 9.85425 22.3408 9.85425ZM7.65919 10.3719H22.3408C22.4028 10.3722 22.4573 10.4128 22.4754 10.472L15 15.1416L7.52459 10.472C7.54271 10.4128 7.59724 10.3722 7.65919 10.3719ZM7.51769 11.0622L12.8947 14.4203L7.51769 18.686V11.0622ZM22.4823 19.4832C22.4823 19.5614 22.4189 19.6247 22.3408 19.6247H7.65919C7.58106 19.6247 7.51769 19.5614 7.51769 19.4832V19.3452L13.3607 14.7274L14.862 15.6662C14.9463 15.7193 15.0537 15.7193 15.1381 15.6662L16.6393 14.7274L22.4823 19.3452V19.4832ZM22.4823 18.686L17.0915 14.4341L22.4823 11.0932V18.686Z" fill="white"/>
<defs>
<linearGradient id="paint0_linear" x1="15" y1="0" x2="15" y2="30" gradientUnits="userSpaceOnUse">
<stop stop-color="#FE8338"/>
<stop offset="1" stop-color="#FD6326"/>
</linearGradient>
</defs>
</svg>
