<svg width="64" height="64" viewBox="0 0 64 64" fill="none" xmlns="http://www.w3.org/2000/svg">
<path d="M59 14H54.8893C55.5573 13.3499 56.0883 12.5725 56.4508 11.7137C56.8134 10.8549 57.0001 9.93217 57 9V5C56.9991 4.20462 56.6828 3.44206 56.1204 2.87964C55.5579 2.31722 54.7954 2.00087 54 2H40C38.6744 2.00156 37.4035 2.52884 36.4662 3.46618C35.5288 4.40353 35.0016 5.6744 35 7V8H29V7C28.9984 5.6744 28.4712 4.40353 27.5338 3.46618C26.5965 2.52884 25.3256 2.00156 24 2H10C9.20462 2.00087 8.44206 2.31722 7.87964 2.87964C7.31722 3.44206 7.00087 4.20462 7 5V9C6.9999 9.93217 7.18664 10.8549 7.54917 11.7137C7.9117 12.5725 8.44267 13.3499 9.11072 14H5C4.20462 14.0009 3.44206 14.3172 2.87964 14.8796C2.31722 15.4421 2.00087 16.2046 2 17V23C2.00087 23.7954 2.31722 24.5579 2.87964 25.1204C3.44206 25.6828 4.20462 25.9991 5 26V59C5.00087 59.7954 5.31722 60.5579 5.87964 61.1204C6.44206 61.6828 7.20462 61.9991 8 62H18V60H8C7.73484 59.9998 7.48059 59.8944 7.29309 59.7069C7.10559 59.5194 7.00018 59.2652 7 59V26H27V34H29V26H35V34H37V26H57V33.5V34H59V26C59.7954 25.9991 60.5579 25.6828 61.1204 25.1204C61.6828 24.5579 61.9991 23.7954 62 23V17C61.9991 16.2046 61.6828 15.4421 61.1204 14.8796C60.5579 14.3172 59.7954 14.0009 59 14ZM37 7C37.0009 6.20462 37.3172 5.44206 37.8796 4.87964C38.4421 4.31722 39.2046 4.00087 40 4H54C54.2652 4.00018 54.5194 4.10559 54.7069 4.29309C54.8944 4.48059 54.9998 4.73484 55 5V9C54.9984 10.3256 54.4712 11.5965 53.5338 12.5338C52.5965 13.4712 51.3256 13.9984 50 14H37V7ZM35 10V14H29V10H35ZM9 9V5C9.00018 4.73484 9.10559 4.48059 9.29309 4.29309C9.48059 4.10559 9.73484 4.00018 10 4H24C24.7954 4.00087 25.5579 4.31722 26.1204 4.87964C26.6828 5.44206 26.9991 6.20462 27 7V14H14C12.6744 13.9984 11.4035 13.4712 10.4662 12.5338C9.52884 11.5965 9.00156 10.3256 9 9ZM5 24C4.73484 23.9998 4.48059 23.8944 4.29309 23.7069C4.10559 23.5194 4.00018 23.2652 4 23V17C4.00018 16.7348 4.10559 16.4806 4.29309 16.2931C4.48059 16.1056 4.73484 16.0002 5 16H24V24H5ZM26 24V16H38V24H26ZM60 23C59.9998 23.2652 59.8944 23.5194 59.7069 23.7069C59.5194 23.8944 59.2652 23.9998 59 24H40V16H59C59.2652 16.0002 59.5194 16.1056 59.7069 16.2931C59.8944 16.4806 59.9998 16.7348 60 17V23Z" fill="#E31E24"/>
<path d="M18 60V62H24.5L21.5 60H18Z" fill="#E31E24"/>
<path d="M59 34H57V37H59V34Z" fill="#E31E24"/>
<path d="M37 34H35V37H37V34Z" fill="#E31E24"/>
<path d="M29 34H27V37H29V34Z" fill="#E31E24"/>
<path d="M33 42H35V44H33V42Z" fill="#E31E24"/>
<path d="M33 46H35V48H33V46Z" fill="#E31E24"/>
<path d="M33 50H35V52H33V50Z" fill="#E31E24"/>
<path d="M33 54H35V56H33V54Z" fill="#E31E24"/>
<path d="M59 36H23C22.2046 36.0009 21.4421 36.3172 20.8796 36.8796C20.3172 37.4421 20.0009 38.2046 20 39V59C20.0009 59.7954 20.3172 60.5579 20.8796 61.1204C21.4421 61.6828 22.2046 61.9991 23 62H59C59.7954 61.9991 60.5579 61.6828 61.1204 61.1204C61.6828 60.5579 61.9991 59.7954 62 59V54.9111C61.9976 54.4372 61.8274 53.9794 61.5195 53.619C61.2117 53.2586 60.7861 53.0189 60.3184 52.9424C59.3894 52.7815 58.5471 52.2977 57.94 51.5763C57.3329 50.8549 57.0001 49.9424 57.0002 48.9996C57.0004 48.0568 57.3334 47.1443 57.9407 46.4231C58.5479 45.7019 59.3903 45.2183 60.3194 45.0576C60.7869 44.9809 61.2123 44.7411 61.5199 44.3807C61.8275 44.0204 61.9976 43.5627 62 43.0889V39C61.9991 38.2046 61.6828 37.4421 61.1204 36.8796C60.5579 36.3172 59.7954 36.0009 59 36ZM59.9805 43.0869C58.585 43.327 57.3195 44.0531 56.4079 45.1366C55.4964 46.2202 54.9977 47.5913 55 49.0073C55.0023 50.4232 55.5056 51.7927 56.4207 52.8732C57.3358 53.9538 58.6037 54.6757 60 54.9111V59C59.9998 59.2652 59.8944 59.5194 59.7069 59.7069C59.5194 59.8944 59.2652 59.9998 59 60H35V58H33V60H23C22.7348 59.9998 22.4806 59.8944 22.2931 59.7069C22.1056 59.5194 22.0002 59.2652 22 59V39C22.0002 38.7348 22.1056 38.4806 22.2931 38.2931C22.4806 38.1056 22.7348 38.0002 23 38H33V40H35V38H59C59.2652 38.0002 59.5194 38.1056 59.7069 38.2931C59.8944 38.4806 59.9998 38.7348 60 39L59.9805 43.0869Z" fill="#E31E24"/>
</svg>
