<svg width="60" height="60" viewBox="0 0 60 60" fill="none" xmlns="http://www.w3.org/2000/svg">
<path d="M59.1615 8.50853L51.4908 0.837783C50.3735 -0.279482 48.5554 -0.279365 47.4382 0.837783L32.9956 15.2802C32.634 15.642 32.634 16.2281 32.9956 16.5899C33.3573 16.9514 33.9436 16.9514 34.3052 16.5899L48.7476 2.14747C48.9391 1.95599 49.1937 1.85064 49.4644 1.85064C49.7351 1.85064 49.9896 1.95599 50.1811 2.14747L57.8519 9.81821C58.0433 10.0096 58.1488 10.2641 58.1488 10.5349C58.1488 10.8056 58.0433 11.0602 57.8519 11.2515L55.9694 13.134L51.0371 8.20185C50.6755 7.84032 50.0892 7.84032 49.7276 8.20185C49.3659 8.5636 49.3659 9.14978 49.7276 9.51153L54.6597 14.4437L52.509 16.5945L50.3413 14.4267C49.9796 14.0652 49.3933 14.0652 49.0317 14.4267C48.6701 14.7885 48.6701 15.3747 49.0317 15.7364L51.1994 17.904L49.0487 20.0548L46.881 17.887C46.5193 17.5255 45.933 17.5255 45.5714 17.887C45.2097 18.2488 45.2097 18.835 45.5714 19.1967L47.7391 21.3643L45.5884 23.5151L40.6561 18.5827C40.2945 18.2213 39.7081 18.221 39.3465 18.5827C38.9849 18.9444 38.9849 19.5306 39.3465 19.8924L44.2788 24.8247L42.1281 26.9754L39.9603 24.8077C39.5987 24.4461 39.0124 24.4461 38.6508 24.8077C38.2891 25.1694 38.2891 25.7556 38.6508 26.1174L40.8184 28.285L38.9989 30.1044L29.8947 21.0002L31.5881 19.3068C31.9497 18.945 31.9497 18.3588 31.5881 17.9971C31.2265 17.6356 30.6402 17.6356 30.2785 17.9971L28.5851 19.6906L11.5029 2.60896C10.3148 1.42091 8.73525 0.76665 7.05514 0.76665C5.37502 0.766768 3.79545 1.42103 2.60752 2.60907C1.41936 3.79712 0.765098 5.37657 0.765098 7.05681C0.765098 8.73693 1.41936 10.3165 2.6074 11.5045L19.6892 28.5864L0.838926 47.437C-0.27834 48.5544 -0.27834 50.3724 0.838926 51.4897L8.50967 59.1606C9.05084 59.7018 9.77049 59.9999 10.536 59.9999C11.3014 59.9999 12.0211 59.7018 12.5622 59.1606L31.4128 40.3101L32.7554 41.6527C33.1171 42.0142 33.7033 42.0142 34.065 41.6527C34.4266 41.2909 34.4266 40.7047 34.065 40.343L32.2118 38.4898C32.1758 38.4328 32.1336 38.3787 32.084 38.3291C32.0345 38.2795 31.9803 38.2374 31.9235 38.2014L11.8583 18.1362L14.3416 15.6529L15.877 17.1883C16.0578 17.369 16.2948 17.4594 16.5319 17.4594C16.7689 17.4594 17.0059 17.369 17.1867 17.1883C17.5483 16.8265 17.5483 16.2403 17.1867 15.8786L15.6514 14.3433L18.1347 11.86L27.9292 21.6544L27.9303 21.6557L27.9316 21.6568L38.2536 31.9788C38.2792 32.0126 38.3063 32.0456 38.3372 32.0765C38.368 32.1073 38.4009 32.1345 38.4347 32.16L52.177 45.9024L49.6937 48.3857L35.8285 34.5205C35.8202 34.5115 35.8127 34.502 35.8039 34.4933L30.2748 28.9641C30.2656 28.9549 30.2557 28.947 30.2463 28.9383L20.4796 19.1717C20.1179 18.8101 19.5316 18.8101 19.17 19.1717C18.8083 19.5334 18.8083 20.1196 19.17 20.4813L48.3838 49.6951L45.9003 52.1785L37.1 43.378C36.7384 43.0165 36.1521 43.0165 35.7905 43.378C35.4288 43.7398 35.4288 44.326 35.7905 44.6877L45.2456 54.1429C45.3355 54.2327 45.4468 54.3053 45.5653 54.3512L56.7541 58.6953C56.9306 58.7637 57.1146 58.797 57.2972 58.797C57.6888 58.797 58.0734 58.6437 58.3604 58.3565C58.7812 57.9354 58.9137 57.3049 58.6979 56.7502L54.3493 45.5665C54.3034 45.4484 54.2308 45.3368 54.1411 45.2472L40.3084 31.4145L59.1615 12.5612C60.2789 11.4438 60.2789 9.62591 59.1615 8.50853ZM30.1036 39.0005L28.2863 40.8172L26.1186 38.6495C25.757 38.288 25.1707 38.288 24.809 38.6495C24.4474 39.0113 24.4474 39.5974 24.809 39.9592L26.9768 42.1269L24.826 44.2777L19.8937 39.3454C19.5321 38.9838 18.9458 38.9838 18.5842 39.3454C18.2225 39.7071 18.2225 40.2933 18.5842 40.6551L23.5165 45.5874L21.3657 47.7381L19.198 45.5704C18.8363 45.2088 18.2501 45.2088 17.8884 45.5704C17.5268 45.9321 17.5268 46.5183 17.8884 46.8801L20.0562 49.0477L17.9054 51.1984L15.7377 49.0307C15.376 48.6692 14.7897 48.6692 14.4281 49.0307C14.0665 49.3924 14.0665 49.9786 14.4281 50.3404L16.5958 52.5081L14.4451 54.6588L9.51279 49.7265C9.15115 49.365 8.56486 49.365 8.20322 49.7265C7.84158 50.0883 7.84158 50.6745 8.20322 51.0362L13.1355 55.9684L11.253 57.8509C11.0615 58.0424 10.807 58.1479 10.5363 58.1479C10.2656 58.1479 10.0111 58.0424 9.81959 57.8509L2.14885 50.1801C1.75369 49.7849 1.75369 49.1419 2.14885 48.7467L20.9993 29.8962L30.1036 39.0005ZM3.91697 10.195C2.18658 8.46458 2.18658 5.64903 3.91697 3.91864C5.64736 2.18813 8.46291 2.18813 10.1933 3.91864L13.1202 6.84552L6.84385 13.1218L3.91697 10.195ZM13.6875 13.6877L13.6869 13.6883L13.6863 13.6889L10.5487 16.8265L8.15353 14.4313L14.4299 8.15497L16.8251 10.5502L13.6875 13.6877ZM56.6842 56.6813L47.5595 53.1388L53.1377 47.5606L56.6842 56.6813Z" fill="url(#paint0_linear)"/>
<path d="M32.9956 16.5899C32.634 16.2281 32.634 15.642 32.9956 15.2802L30.2785 17.9971C30.6402 17.6356 31.2265 17.6356 31.5881 17.9971C31.9497 18.3588 31.9497 18.945 31.5881 19.3068L34.3052 16.5899C33.9436 16.9514 33.3573 16.9514 32.9956 16.5899Z" fill="url(#paint1_linear)"/>
<path d="M34.065 41.6527C33.7033 42.0142 33.1171 42.0142 32.7554 41.6527L35.7905 44.6877C35.4288 44.326 35.4288 43.7398 35.7905 43.378C36.1521 43.0165 36.7384 43.0165 37.1 43.378L34.065 40.343C34.4266 40.7047 34.4266 41.2909 34.065 41.6527Z" fill="url(#paint2_linear)"/>
<defs>
<linearGradient id="paint0_linear" x1="30.0003" y1="-0.00012207" x2="30.0003" y2="59.9999" gradientUnits="userSpaceOnUse">
<stop stop-color="#FE8338"/>
<stop offset="1" stop-color="#FD6326"/>
</linearGradient>
<linearGradient id="paint1_linear" x1="30.0003" y1="-0.00012207" x2="30.0003" y2="59.9999" gradientUnits="userSpaceOnUse">
<stop stop-color="#FE8338"/>
<stop offset="1" stop-color="#FD6326"/>
</linearGradient>
<linearGradient id="paint2_linear" x1="30.0003" y1="-0.00012207" x2="30.0003" y2="59.9999" gradientUnits="userSpaceOnUse">
<stop stop-color="#FE8338"/>
<stop offset="1" stop-color="#FD6326"/>
</linearGradient>
</defs>
</svg>
