<svg width="58" height="100" fill="none" xmlns="http://www.w3.org/2000/svg"><path d="M57.09 12.724v4.261H40.576v-4.261H57.09zm-6.925 9.288h-9.589v4.262h9.59v-4.262zm-9.589 13.55H57.09v-4.261H40.576v4.261zm9.59 5.03h-9.59v4.261h9.59v-4.262zm-9.59 13.55H57.09v-4.263H40.576v4.262zm2.575 24.283C43.15 90.32 33.47 100 21.575 100S0 90.321 0 78.425c0-7.71 4.049-14.716 10.654-18.592V10.92c0-6.021 4.9-10.92 10.921-10.92 6.022 0 10.921 4.899 10.921 10.92v48.913A21.464 21.464 0 0143.15 78.425zm-4.262 0c0-6.542-3.636-12.455-9.49-15.428l-1.165-.592V10.923a6.666 6.666 0 00-6.659-6.66 6.666 6.666 0 00-6.659 6.66v51.482l-1.165.592c-5.854 2.975-9.49 8.888-9.49 15.428 0 9.546 7.768 17.313 17.314 17.313 9.547 0 17.314-7.767 17.314-17.313zm-3.55 0c0 7.588-6.174 13.761-13.764 13.761-7.588 0-13.761-6.173-13.761-13.761 0-6.22 4.202-11.682 10.22-13.282l.79-.21V38.647h5.504V64.93l.79.213c6.02 1.6 10.22 7.064 10.22 13.282zM22.257 69.25a2.754 2.754 0 00-3.288-2.075c-5.216 1.18-8.86 5.742-8.86 11.096a2.753 2.753 0 002.749 2.748 2.753 2.753 0 002.749-2.748c0-2.722 1.922-5.134 4.575-5.732a2.762 2.762 0 002.075-3.289z" fill="url(#paint0_linear)"/><defs><linearGradient id="paint0_linear" x1="28.545" y1="0" x2="28.545" y2="100" gradientUnits="userSpaceOnUse"><stop stop-color="#FE8338"/><stop offset="1" stop-color="#FD6326"/></linearGradient></defs></svg>