<svg width="96" height="96" fill="none" xmlns="http://www.w3.org/2000/svg"><path d="M47.851 15.879c-14.492 0-24.96 10.8-26.621 22.402-1.035 7.735 1.465 15.274 6.66 20.977 4.57 4.883 7.07 11.406 7.07 18.125l-.019 10.586c0 4.277 3.535 7.734 7.91 7.734h10.195c4.375 0 7.91-3.457 7.91-7.734l.02-10.586c0-6.914 2.285-13.242 6.66-17.715 4.785-4.883 7.285-11.191 7.285-17.715-.02-14.473-12.304-26.074-27.07-26.074zm9.14 72.09c0 2.031-1.66 3.672-3.75 3.672H43.047c-2.09 0-3.75-1.622-3.75-3.672V83.28h17.676v4.688h.02zm7.735-31.153c-5.195 5.293-7.91 12.618-7.91 20.567v1.836H39.14v-1.836c0-7.54-3.125-15.059-8.32-20.762-4.57-4.883-6.445-11.191-5.625-17.715 1.465-9.765 10.547-18.945 22.676-18.945 12.695 0 22.89 9.98 22.89 21.992 0 5.488-2.09 10.781-6.035 14.863z" fill="url(#paint0_linear)"/><path d="M49.922 0h-4.16v9.766h4.16V0z" fill="url(#paint1_linear)"/><path d="M73.066 18.828l2.91 2.91 7.13-6.855-2.93-2.91-7.11 6.855z" fill="url(#paint2_linear)"/><path d="M95.703 43.984H85.508v4.082h10.195v-4.082z" fill="url(#paint3_linear)"/><path d="M10.195 43.984H0v4.082h10.195v-4.082z" fill="url(#paint4_linear)"/><path d="M15.45 11.953l-2.93 2.91 7.128 6.856 2.91-2.91-7.109-6.856z" fill="url(#paint5_linear)"/><defs><linearGradient id="paint0_linear" x1="47.961" y1="15.879" x2="47.961" y2="95.703" gradientUnits="userSpaceOnUse"><stop stop-color="#FE8338"/><stop offset="1" stop-color="#FD6326"/></linearGradient><linearGradient id="paint1_linear" x1="47.842" y1="0" x2="47.842" y2="9.766" gradientUnits="userSpaceOnUse"><stop stop-color="#FE8338"/><stop offset="1" stop-color="#FD6326"/></linearGradient><linearGradient id="paint2_linear" x1="78.086" y1="11.973" x2="78.086" y2="21.738" gradientUnits="userSpaceOnUse"><stop stop-color="#FE8338"/><stop offset="1" stop-color="#FD6326"/></linearGradient><linearGradient id="paint3_linear" x1="90.606" y1="43.984" x2="90.606" y2="48.066" gradientUnits="userSpaceOnUse"><stop stop-color="#FE8338"/><stop offset="1" stop-color="#FD6326"/></linearGradient><linearGradient id="paint4_linear" x1="5.098" y1="43.984" x2="5.098" y2="48.066" gradientUnits="userSpaceOnUse"><stop stop-color="#FE8338"/><stop offset="1" stop-color="#FD6326"/></linearGradient><linearGradient id="paint5_linear" x1="17.539" y1="11.953" x2="17.539" y2="21.719" gradientUnits="userSpaceOnUse"><stop stop-color="#FE8338"/><stop offset="1" stop-color="#FD6326"/></linearGradient></defs></svg>