<svg width="100" height="100" fill="none" xmlns="http://www.w3.org/2000/svg"><path d="M0 0v100h100V0H0zm96.774 96.774H3.226V3.226h93.548v93.548z" fill="url(#paint0_linear)"/><path d="M91.935 53.226V8.065H37.192a14.33 14.33 0 01-.096-1.613h-3.225c0 .545-.036 1.082-.096 1.613H8.065v83.871h83.87v-38.71zM88.71 11.291v32.258h-8.933c-2.898-3.373-5.2-7.094-7.013-10.805l10.635-10.636-2.28-2.28-9.778 9.777c-3.301-7.822-4.577-15.1-5.013-18.315H88.71zm-53.225 2.55a17.858 17.858 0 008.738 8.74 17.851 17.851 0 00-8.738 8.74 17.856 17.856 0 00-8.74-8.74 17.85 17.85 0 008.74-8.74zM11.29 11.29h21.734c-1.998 5.628-7.363 9.677-13.67 9.677v3.226c3.604 0 6.898 1.327 9.438 3.51-1.708 4.248-4.605 11.101-8.595 15.845H11.29V11.29zm0 35.483h8.065V50H11.29v-3.226zm0 6.452h8.557a204.97 204.97 0 014.441 13.753l-12.998 13V53.226zm0 35.484v-4.171l13.983-13.982c1.506 5.703 2.896 12.084 3.585 18.153H11.29zm37.096-27.985a9.634 9.634 0 01-3.225.565v3.226c1.132 0 2.214.206 3.225.564v23.63H32.103c-.768-7.06-2.442-14.447-4.186-20.799l13.546-13.545-2.281-2.28L26.908 64.36c-1.994-6.768-3.857-11.8-4.328-13.046v-5.587c3.91-4.608 6.778-10.913 8.618-15.384a14.422 14.422 0 012.672 8.366h3.226c0-6.895 4.836-12.669 11.29-14.142v36.158zm0-40.131c-4.864-1.11-8.796-4.665-10.443-9.304h10.444v9.304zm3.227 68.116V67c1.974 1.773 3.226 4.336 3.226 7.194h3.225c0-5.338 4.34-9.678 9.678-9.678V61.29c-5.337 0-9.678-4.34-9.678-9.677H54.84c0 2.857-1.252 5.42-3.226 7.193V11.29h11.451c.408 3.343 1.774 11.792 5.8 20.79L57.73 43.216l2.28 2.28 10.333-10.332c1.863 3.628 4.185 7.255 7.074 10.594v5.56c-.957 2.537-7.724 20.87-9.52 37.393H51.612zm-.21-25.807a12.993 12.993 0 005.049-5.048 13.002 13.002 0 005.048 5.048 12.994 12.994 0 00-5.048 5.049 12.996 12.996 0 00-5.049-5.049zM88.71 88.708H71.142c1.665-14.691 7.461-31.242 9.01-35.482h1.693c-.597 2.729-1.692 8.168-2.797 15.9l3.192.456c1.186-8.291 2.38-13.994 2.91-16.358h3.56v35.484zm0-38.708h-8.064v-3.226h8.065V50z" fill="url(#paint1_linear)"/><path d="M60.15 31.117l-4.84 4.84 2.282 2.28 4.839-4.839-2.281-2.281z" fill="url(#paint2_linear)"/><path d="M32.73 74.667l2.28 2.281 8.065-8.064-2.28-2.281-8.065 8.064z" fill="url(#paint3_linear)"/><defs><linearGradient id="paint0_linear" x1="50" y1="0" x2="50" y2="100" gradientUnits="userSpaceOnUse"><stop stop-color="#FE8338"/><stop offset="1" stop-color="#FD6326"/></linearGradient><linearGradient id="paint1_linear" x1="50" y1="6.452" x2="50" y2="91.936" gradientUnits="userSpaceOnUse"><stop stop-color="#FE8338"/><stop offset="1" stop-color="#FD6326"/></linearGradient><linearGradient id="paint2_linear" x1="57.73" y1="33.536" x2="60.011" y2="35.818" gradientUnits="userSpaceOnUse"><stop stop-color="#FE8338"/><stop offset="1" stop-color="#FD6326"/></linearGradient><linearGradient id="paint3_linear" x1="33.87" y1="75.808" x2="41.935" y2="67.743" gradientUnits="userSpaceOnUse"><stop stop-color="#FE8338"/><stop offset="1" stop-color="#FD6326"/></linearGradient></defs></svg>