<svg width="63" height="59" viewBox="0 0 63 59" fill="none" xmlns="http://www.w3.org/2000/svg">
<path d="M31.5009 36.5206C33.3806 36.5206 34.9098 34.9914 34.9098 33.1116C34.9097 31.2319 33.3806 29.7028 31.5009 29.7028C29.6213 29.7028 28.0918 31.2319 28.0918 33.1116C28.0918 34.9914 29.621 36.5206 31.5009 36.5206ZM31.5009 31.7303C32.2627 31.7303 32.8824 32.3499 32.8824 33.1116C32.8823 33.8734 32.2625 34.4932 31.5009 34.4932C30.739 34.4932 30.1192 33.8733 30.1192 33.1116C30.1192 32.3499 30.739 31.7303 31.5009 31.7303Z" fill="#E31E24"/>
<path d="M51.5843 10.7322H11.4152C10.8552 10.7322 10.4014 11.1861 10.4014 11.7458V42.5656C10.4014 43.1256 10.8553 43.5795 11.4152 43.5795H51.5843C52.1442 43.5795 52.5979 43.1256 52.5979 42.5657V11.7458C52.5979 11.186 52.1441 10.7322 51.5843 10.7322ZM50.5705 41.552H12.4288V28.2184H50.5705V41.552ZM50.5705 26.191H12.4288V12.7596H50.5705V26.191Z" fill="#E31E24"/>
<path d="M31.5009 21.0631C33.3806 21.0631 34.9098 19.5339 34.9098 17.6542C34.9097 15.7745 33.3806 14.2453 31.5009 14.2453C29.6213 14.2453 28.0918 15.7745 28.0918 17.6542C28.0918 19.5339 29.621 21.0631 31.5009 21.0631ZM31.5009 16.2726C32.2627 16.2726 32.8824 16.8923 32.8824 17.6541C32.8824 18.4159 32.2625 19.0355 31.5009 19.0355C30.739 19.0355 30.1192 18.4159 30.1192 17.6541C30.1192 16.8923 30.739 16.2726 31.5009 16.2726Z" fill="#E31E24"/>
<path d="M61.9865 0.876465H1.01366C0.453798 0.876465 0 1.33039 0 1.89013V5.9967C0 6.55657 0.453798 7.01049 1.01366 7.01049H3.52444V57.1099C3.52444 57.6697 3.97836 58.1236 4.53822 58.1236H8.81694C9.30593 58.1236 9.7254 57.7746 9.81387 57.2936L11.0222 50.7336H51.9784L53.1867 57.2936C53.2752 57.7744 53.6947 58.1236 54.1837 58.1236H58.4624C59.0224 58.1236 59.476 57.6697 59.476 57.1099V7.01049H61.986C62.546 7.01049 62.9998 6.55657 62.9998 5.9967V1.89013C63.0001 1.33039 62.5463 0.876465 61.9865 0.876465ZM7.97284 56.0961H5.55201V50.7334H8.96078L7.97284 56.0961ZM5.55201 48.706V7.01049H57.4491V48.7061H5.55201V48.706ZM57.449 56.0961H55.0279L54.04 50.7334H57.4488V56.0961H57.449ZM60.9727 4.98304H2.02745V2.90391H60.9727V4.98304Z" fill="#E31E24"/>
</svg>
