<svg width="99" height="95" fill="none" xmlns="http://www.w3.org/2000/svg"><path d="M98.081 0H0v79.595h4.108V95h9.794l4.365-15.405h61.547L84.179 95h9.794V79.595h4.108V0zM12.544 93.203H5.905V79.595H16.4l-3.855 13.608zm79.632 0h-6.639l-3.855-13.608h10.494v13.608zm4.108-15.406H1.797v-76h94.487v76z" fill="url(#paint0_linear)"/><path d="M92.689 54.181H5.392v18.995h87.297V54.181zM90.892 71.38H7.189v-15.4h83.703v15.4z" fill="url(#paint1_linear)"/><path d="M92.689 6.162H5.392v18.995h87.297V6.162zM90.892 23.36H7.189V7.96h83.703v15.4z" fill="url(#paint2_linear)"/><path d="M92.689 30.171H5.392v18.995h87.297V30.171zM90.892 47.37H7.189v-15.4h83.703v15.4z" fill="url(#paint3_linear)"/><path d="M58.541 9.757h-19v6.162h19V9.757zm-1.797 4.365H41.338v-2.568h15.406v2.568z" fill="url(#paint4_linear)"/><path d="M58.541 33.766h-19v6.162h19v-6.162zm-1.797 4.365H41.338v-2.568h15.406v2.568z" fill="url(#paint5_linear)"/><path d="M58.541 57.775h-19v6.163h19v-6.163zm-1.797 4.365H41.338v-2.567h15.406v2.567z" fill="url(#paint6_linear)"/><defs><linearGradient id="paint0_linear" x1="49.041" y1="0" x2="49.041" y2="95" gradientUnits="userSpaceOnUse"><stop stop-color="#FE8338"/><stop offset="1" stop-color="#FD6326"/></linearGradient><linearGradient id="paint1_linear" x1="49.04" y1="54.181" x2="49.04" y2="73.176" gradientUnits="userSpaceOnUse"><stop stop-color="#FE8338"/><stop offset="1" stop-color="#FD6326"/></linearGradient><linearGradient id="paint2_linear" x1="49.04" y1="6.162" x2="49.04" y2="25.157" gradientUnits="userSpaceOnUse"><stop stop-color="#FE8338"/><stop offset="1" stop-color="#FD6326"/></linearGradient><linearGradient id="paint3_linear" x1="49.04" y1="30.171" x2="49.04" y2="49.166" gradientUnits="userSpaceOnUse"><stop stop-color="#FE8338"/><stop offset="1" stop-color="#FD6326"/></linearGradient><linearGradient id="paint4_linear" x1="49.041" y1="9.757" x2="49.041" y2="15.919" gradientUnits="userSpaceOnUse"><stop stop-color="#FE8338"/><stop offset="1" stop-color="#FD6326"/></linearGradient><linearGradient id="paint5_linear" x1="49.041" y1="33.766" x2="49.041" y2="39.928" gradientUnits="userSpaceOnUse"><stop stop-color="#FE8338"/><stop offset="1" stop-color="#FD6326"/></linearGradient><linearGradient id="paint6_linear" x1="49.041" y1="57.775" x2="49.041" y2="63.938" gradientUnits="userSpaceOnUse"><stop stop-color="#FE8338"/><stop offset="1" stop-color="#FD6326"/></linearGradient></defs></svg>