<svg width="22" height="22" fill="none" xmlns="http://www.w3.org/2000/svg"><path d="M21.99 17.36c.046.357-.063.667-.327.931l-3.097 3.074c-.14.155-.322.288-.547.396a2.258 2.258 0 01-.664.21 2.28 2.28 0 00-.14.012 3.18 3.18 0 01-.303.011c-.295 0-.772-.05-1.432-.151-.66-.101-1.467-.35-2.422-.745-.955-.396-2.038-.99-3.25-1.782-1.21-.792-2.499-1.879-3.865-3.26-1.087-1.072-1.988-2.097-2.702-3.075-.714-.978-1.289-1.883-1.723-2.713-.435-.831-.761-1.584-.978-2.26a11.985 11.985 0 01-.443-1.746c-.078-.49-.109-.874-.093-1.153.015-.28.023-.435.023-.466.031-.217.101-.438.21-.664.108-.225.24-.407.396-.547L3.73.335c.218-.218.466-.326.746-.326a.87.87 0 01.535.174c.155.117.287.26.396.431L7.9 5.342c.14.248.179.52.117.815a1.452 1.452 0 01-.396.745L6.478 8.044a.388.388 0 00-.081.15.575.575 0 00-.035.176c.062.326.202.698.42 1.118.186.372.473.826.86 1.362.39.536.94 1.153 1.655 1.851.698.715 1.32 1.27 1.863 1.666.543.395.997.687 1.362.873.365.186.645.299.839.338l.29.058a.553.553 0 00.152-.035.39.39 0 00.151-.082l1.328-1.35c.28-.249.605-.373.978-.373.264 0 .474.047.629.14h.023l4.495 2.655c.326.202.52.458.582.768z" fill="#141516"/></svg>