<svg width="100" height="100" fill="none" xmlns="http://www.w3.org/2000/svg"><path d="M99.932 82.306a7.672 7.672 0 00-3.805-5.684l-24.67-14.204a7.741 7.741 0 00-9.321 1.233l-4.86 4.859a3.561 3.561 0 01-4.757.266 140.446 140.446 0 01-11.211-10.083c-3.608-3.608-7-7.38-10.083-11.21a3.561 3.561 0 01.266-4.758l4.859-4.86a7.74 7.74 0 001.233-9.32L23.379 3.874A7.673 7.673 0 0017.695.068a7.67 7.67 0 00-6.479 2.196L3.894 9.588c-5.11 5.11-5.192 14.458-.23 26.322 4.77 11.408 13.672 23.965 25.067 35.36s23.952 20.297 35.36 25.068C69.931 98.78 75.161 100 79.576 100c4.555 0 8.243-1.299 10.838-3.893l7.321-7.322a7.674 7.674 0 002.197-6.479zM69.84 65.226L94.51 79.43a4.455 4.455 0 012.21 3.301 4.45 4.45 0 01-.838 3.254L63.095 67.273l1.331-1.331a4.497 4.497 0 015.414-.717zM17.27 3.28a4.455 4.455 0 013.301 2.21l14.204 24.671a4.495 4.495 0 01-.716 5.414l-1.223 1.223L14.022 4.119a4.434 4.434 0 013.248-.839zm70.852 90.536c-4.06 4.06-12.363 3.89-22.781-.467-11.028-4.612-23.216-13.266-34.32-24.37C19.919 57.876 11.265 45.688 6.653 34.66c-4.358-10.418-4.528-18.72-.468-22.782l5.436-5.435L30.464 39.17 29.2 40.434a6.796 6.796 0 00-.5 9.08 143.726 143.726 0 0010.317 11.47c3.69 3.69 7.55 7.16 11.47 10.316a6.796 6.796 0 009.08-.5l1.153-1.152 32.832 18.738-5.43 5.43z" fill="url(#paint0_linear)"/><defs><linearGradient id="paint0_linear" x1="50.001" y1="0" x2="50.001" y2="100" gradientUnits="userSpaceOnUse"><stop stop-color="#FE8338"/><stop offset="1" stop-color="#FD6326"/></linearGradient></defs></svg>