<svg width="100" height="100" fill="none" xmlns="http://www.w3.org/2000/svg"><path d="M50.579 43.46c6.309 0 11.444-5.135 11.444-11.444 0-6.309-5.136-11.444-11.444-11.444-6.31 0-11.444 5.135-11.444 11.444 0 6.309 5.133 11.444 11.444 11.444zm0-19.618c4.507 0 8.174 3.667 8.174 8.174s-3.667 8.174-8.174 8.174c-4.508 0-8.175-3.667-8.175-8.174s3.667-8.174 8.175-8.174z" fill="url(#paint0_linear)"/><path d="M82.095 61.444H70.388l4.981-7.194c9.409-12.54 8.047-33.154-2.911-44.111C66.538 4.218 58.665.956 50.289.956c-8.373 0-16.247 3.262-22.168 9.183-10.958 10.957-12.32 31.572-2.95 44.062l5.016 7.244H17.905L0 99.045h100L82.095 61.444zm-54.27-9.156c-8.5-11.334-7.282-29.95 2.61-39.839C35.737 7.146 42.79 4.224 50.29 4.224s14.552 2.922 19.857 8.225c9.89 9.89 11.109 28.507 2.571 39.889l-22.43 32.39-16.124-23.284-6.34-9.156zm-7.854 12.425h12.48l17.838 25.76 17.837-25.76h11.903L94.82 95.775H5.179l14.792-31.062z" fill="url(#paint1_linear)"/><defs><linearGradient id="paint0_linear" x1="50.579" y1="20.572" x2="50.579" y2="43.46" gradientUnits="userSpaceOnUse"><stop stop-color="#FE8338"/><stop offset="1" stop-color="#FD6326"/></linearGradient><linearGradient id="paint1_linear" x1="50" y1=".956" x2="50" y2="99.045" gradientUnits="userSpaceOnUse"><stop stop-color="#FE8338"/><stop offset="1" stop-color="#FD6326"/></linearGradient></defs></svg>