<svg width="32" height="100" fill="none" xmlns="http://www.w3.org/2000/svg"><path d="M4.281 93.75a.782.782 0 00-.781.781v3.906H1.937v-3.906a.782.782 0 00-1.562 0v4.688c0 .431.35.781.781.781h3.125c.432 0 .782-.35.782-.781V94.53a.782.782 0 00-.782-.781z" fill="url(#paint0_linear)"/><path d="M30.844 93.75a.782.782 0 00-.782.781v3.906H28.5v-3.906a.782.782 0 00-1.563 0v4.688c0 .431.35.781.782.781h3.125c.431 0 .781-.35.781-.781V94.53a.782.782 0 00-.781-.781z" fill="url(#paint1_linear)"/><path d="M8.969 74.219a2.347 2.347 0 00-2.344 2.344 2.347 2.347 0 002.344 2.343 2.347 2.347 0 002.344-2.344 2.347 2.347 0 00-2.344-2.343zm0 3.125a.783.783 0 01-.781-.781.782.782 0 11.781.781z" fill="url(#paint2_linear)"/><path d="M27.719 0H4.28A3.91 3.91 0 00.375 3.906v90.625a.782.782 0 001.563 0V3.906A2.347 2.347 0 014.28 1.562h23.44a2.347 2.347 0 012.343 2.344v90.625a.782.782 0 001.563 0V3.906A3.91 3.91 0 0027.719 0z" fill="url(#paint3_linear)"/><path d="M27.719 93.75H4.28a.782.782 0 000 1.563h23.44a.782.782 0 000-1.563z" fill="url(#paint4_linear)"/><path d="M27.719 60.156H4.28a.782.782 0 00-.781.782v30.468c0 .431.35.781.781.781h23.44c.431 0 .781-.35.781-.78v-30.47a.782.782 0 00-.781-.78zm-.782 30.469H5.063V61.719h21.875v28.906z" fill="url(#paint5_linear)"/><path d="M27.719 3.125H4.28a.782.782 0 00-.781.781v53.907c0 .43.35.78.781.78h23.44c.431 0 .781-.35.781-.78V3.906a.782.782 0 00-.781-.781zm-.782 53.906H5.063V4.688h21.875V57.03z" fill="url(#paint6_linear)"/><path d="M24.594 16.406H7.406a.782.782 0 000 1.563h17.188a.782.782 0 000-1.563z" fill="url(#paint7_linear)"/><path d="M24.594 29.688H7.406a.782.782 0 000 1.562h17.188a.782.782 0 000-1.563z" fill="url(#paint8_linear)"/><path d="M24.594 43.75H7.406a.782.782 0 000 1.563h17.188a.782.782 0 000-1.563z" fill="url(#paint9_linear)"/><path d="M23.813 64.063h-2.344a.782.782 0 000 1.562h2.343a.782.782 0 000-1.563z" fill="url(#paint10_linear)"/><path d="M18.344 64.063H16.78a.782.782 0 000 1.562h1.563a.782.782 0 000-1.563z" fill="url(#paint11_linear)"/><path d="M23.813 64.063a.782.782 0 00-.782.78v6.25a.782.782 0 001.563 0v-6.25a.782.782 0 00-.782-.78z" fill="url(#paint12_linear)"/><defs><linearGradient id="paint0_linear" x1="2.719" y1="93.75" x2="2.719" y2="100" gradientUnits="userSpaceOnUse"><stop stop-color="#FE8338"/><stop offset="1" stop-color="#FD6326"/></linearGradient><linearGradient id="paint1_linear" x1="29.281" y1="93.75" x2="29.281" y2="100" gradientUnits="userSpaceOnUse"><stop stop-color="#FE8338"/><stop offset="1" stop-color="#FD6326"/></linearGradient><linearGradient id="paint2_linear" x1="8.969" y1="74.219" x2="8.969" y2="78.906" gradientUnits="userSpaceOnUse"><stop stop-color="#FE8338"/><stop offset="1" stop-color="#FD6326"/></linearGradient><linearGradient id="paint3_linear" x1="16" y1="0" x2="16" y2="95.313" gradientUnits="userSpaceOnUse"><stop stop-color="#FE8338"/><stop offset="1" stop-color="#FD6326"/></linearGradient><linearGradient id="paint4_linear" x1="16" y1="93.75" x2="16" y2="95.313" gradientUnits="userSpaceOnUse"><stop stop-color="#FE8338"/><stop offset="1" stop-color="#FD6326"/></linearGradient><linearGradient id="paint5_linear" x1="16" y1="60.156" x2="16" y2="92.188" gradientUnits="userSpaceOnUse"><stop stop-color="#FE8338"/><stop offset="1" stop-color="#FD6326"/></linearGradient><linearGradient id="paint6_linear" x1="16" y1="3.125" x2="16" y2="58.594" gradientUnits="userSpaceOnUse"><stop stop-color="#FE8338"/><stop offset="1" stop-color="#FD6326"/></linearGradient><linearGradient id="paint7_linear" x1="16" y1="16.406" x2="16" y2="17.969" gradientUnits="userSpaceOnUse"><stop stop-color="#FE8338"/><stop offset="1" stop-color="#FD6326"/></linearGradient><linearGradient id="paint8_linear" x1="16" y1="29.688" x2="16" y2="31.25" gradientUnits="userSpaceOnUse"><stop stop-color="#FE8338"/><stop offset="1" stop-color="#FD6326"/></linearGradient><linearGradient id="paint9_linear" x1="16" y1="43.75" x2="16" y2="45.313" gradientUnits="userSpaceOnUse"><stop stop-color="#FE8338"/><stop offset="1" stop-color="#FD6326"/></linearGradient><linearGradient id="paint10_linear" x1="22.641" y1="64.063" x2="22.641" y2="65.625" gradientUnits="userSpaceOnUse"><stop stop-color="#FE8338"/><stop offset="1" stop-color="#FD6326"/></linearGradient><linearGradient id="paint11_linear" x1="17.563" y1="64.063" x2="17.563" y2="65.625" gradientUnits="userSpaceOnUse"><stop stop-color="#FE8338"/><stop offset="1" stop-color="#FD6326"/></linearGradient><linearGradient id="paint12_linear" x1="23.813" y1="64.063" x2="23.813" y2="71.875" gradientUnits="userSpaceOnUse"><stop stop-color="#FE8338"/><stop offset="1" stop-color="#FD6326"/></linearGradient></defs></svg>