<svg width="100" height="53" fill="none" xmlns="http://www.w3.org/2000/svg"><path d="M99.884 43.168l-.002-.006-.002-.006L83.849 5.994c-.584-1.353-1.466-2.528-2.552-3.397A11.756 11.756 0 0073.97.024H34.9a1.43 1.43 0 00-.114 0h-6.988a1.465 1.465 0 000 2.93h5.233l-2.642 12.243a13.611 13.611 0 00-8.545-2.983 13.71 13.71 0 00-5.724 1.246l2.72-6.304c.396-.92.986-1.709 1.707-2.285 0 0 1.25-.872 1.938-1.174a1.465 1.465 0 00-1.183-2.681 11.687 11.687 0 00-2.583 1.566c-1.095.875-1.984 2.055-2.57 3.414L5.83 29.919c-.014.03-.027.06-.038.09L.119 43.156l-.002.006-.003.006c-.08.19-.117.388-.115.584v5.306a2.325 2.325 0 003.918 1.693 14.05 14.05 0 019.68-3.844 14.15 14.15 0 0110.419 4.591 2.327 2.327 0 003.432.001 14.146 14.146 0 0110.417-4.592 14.15 14.15 0 0110.418 4.591 2.328 2.328 0 003.432.001 14.145 14.145 0 0110.417-4.592 14.15 14.15 0 0110.42 4.591 2.328 2.328 0 003.43.001 14.04 14.04 0 017.18-4.22 1.465 1.465 0 10-.67-2.852 16.94 16.94 0 00-8.225 4.624 17.091 17.091 0 00-12.135-5.074 17.087 17.087 0 00-12.133 5.075 17.087 17.087 0 00-12.134-5.075 17.086 17.086 0 00-12.133 5.075 17.085 17.085 0 00-12.135-5.075 16.97 16.97 0 00-10.668 3.75v-3.46c5.784-6.686 16.179-6.417 21.662.389.02.016.318.442.926.53a1.462 1.462 0 001.37-.548 14.053 14.053 0 0110.978-5.245c4.054 0 7.872 1.55 11.022 5.297a1.297 1.297 0 00.175.172 1.468 1.468 0 001.96-.077 1.075 1.075 0 00.115-.128c.001 0 .002 0 .003-.002a14.054 14.054 0 0110.992-5.262c7.349 0 11.185 5.46 11.165 5.442 1.176 1.033 2.327-.369 2.086-.15 6.277-7.36 16.309-6.63 21.687-.418v3.46a16.908 16.908 0 00-8.145-3.564 1.465 1.465 0 00-.43 2.898 14.01 14.01 0 017.587 3.689 2.323 2.323 0 003.917-1.691v-5.307a1.44 1.44 0 00-.115-.584zM24.882 40.73c-5.404-4.787-13.327-5.632-19.62-2.097l3.144-7.29c2.35-2.576 5.705-4.05 9.244-4.05 3.565 0 6.904 1.473 9.254 4.06l-2.022 9.377zm2.748-12.74c-2.754-2.329-6.27-3.626-9.98-3.626-2.44 0-4.813.57-6.937 1.63l3.149-7.3c2.01-2.258 4.908-3.55 7.982-3.55 3.006 0 5.824 1.223 7.828 3.376l-2.042 9.47zm20.905 12.22a16.964 16.964 0 00-10.671-3.747c-3.53 0-6.902 1.075-9.72 3.037l1.738-8.057c2.354-2.643 5.728-4.15 9.333-4.15 3.598 0 6.966 1.5 9.32 4.13v8.788zm0-12.748a15.432 15.432 0 00-9.32-3.098c-3.004 0-5.88.85-8.326 2.41l1.743-8.085c2.013-2.258 4.898-3.546 7.982-3.546 3.052 0 5.91 1.261 7.92 3.478v8.84zm0-12.737a13.636 13.636 0 00-7.921-2.51c-2.509 0-4.915.67-6.996 1.908l2.41-11.17h12.507v11.772zM73.969 2.954c2.022 0 3.923.667 5.496 1.928.713.572 1.3 1.358 1.694 2.273l2.72 6.305a13.722 13.722 0 00-5.727-1.246 13.606 13.606 0 00-8.543 2.983L66.968 2.954h7zm-22.505 0h12.507l2.41 11.17a13.669 13.669 0 00-6.998-1.91c-2.889 0-5.642.89-7.919 2.51V2.955zm0 15.667c2.01-2.216 4.867-3.477 7.919-3.477 3.084 0 5.97 1.287 7.982 3.545l1.745 8.085a15.47 15.47 0 00-8.33-2.41c-3.42 0-6.672 1.102-9.316 3.098V18.62zm10.668 17.842a16.957 16.957 0 00-10.668 3.748v-8.787c2.354-2.63 5.72-4.13 9.317-4.13 3.607 0 6.981 1.506 9.336 4.149l1.737 8.058a16.973 16.973 0 00-9.722-3.038zm8.194-17.943c2.005-2.153 4.82-3.376 7.826-3.376 3.076 0 5.974 1.292 7.985 3.55l3.148 7.3a15.543 15.543 0 00-6.938-1.63c-3.71 0-7.225 1.297-9.978 3.626l-2.043-9.47zm4.79 22.21l-2.022-9.377c2.35-2.587 5.689-4.06 9.253-4.06 3.54 0 6.896 1.474 9.246 4.05l3.145 7.29c-6.179-3.469-14.108-2.788-19.621 2.097z" fill="url(#paint0_linear)"/><defs><linearGradient id="paint0_linear" x1="49.999" y1=".023" x2="49.999" y2="52.254" gradientUnits="userSpaceOnUse"><stop stop-color="#FE8338"/><stop offset="1" stop-color="#FD6326"/></linearGradient></defs></svg>