<svg width="41" height="60" viewBox="0 0 41 60" fill="none" xmlns="http://www.w3.org/2000/svg">
<path d="M0.634277 50.3928L27.5755 59.9445C27.817 60.0303 28.0825 60.0162 28.3136 59.9063C28.5466 59.7855 28.7239 59.5789 28.8088 59.3304L32.2617 49.5627H39.2416C39.775 49.5627 40.2632 49.183 40.2632 48.6496V13.4074C40.2528 13.1867 40.1698 12.9754 40.0264 12.807L34.2285 5.50505C34.0408 5.27158 33.7583 5.13386 33.4583 5.13104H23.4425C23.4043 5.13104 23.3661 5.0334 23.3269 4.98105C21.9002 3.06335 20.1514 1.54843 18.4049 0.707493C16.4556 -0.230134 14.6977 -0.235322 13.4554 0.689099C12.2131 1.61399 11.7146 3.30059 12.0532 5.43666C12.2499 6.58322 12.6121 7.69536 13.1276 8.73816L9.91245 12.8075C9.78086 12.9792 9.71152 13.1909 9.71577 13.4074V21.9545L0.0588726 49.1594C-0.0293247 49.3995 -0.0180053 49.6645 0.0900012 49.8961C0.198479 50.1272 0.394211 50.306 0.634277 50.3928ZM14.6086 2.23184C15.7759 1.36308 18.5317 2.35306 20.9701 5.13009H16.4423C16.1466 5.13386 15.8679 5.27158 15.6854 5.50458L14.485 7.01902C13.6115 4.77211 13.7148 2.89639 14.6086 2.23184ZM11.6476 13.7437L14.1686 10.5502C14.3525 10.8304 14.5388 11.1082 14.7425 11.3817C16.1693 13.2994 17.9143 14.8186 19.6618 15.6595C20.0363 15.8411 20.424 15.9935 20.822 16.1147C21.1008 18.2012 22.8944 19.7515 24.9994 19.7241C27.1048 19.6973 28.8579 18.1022 29.0829 16.0085C29.3078 13.9154 27.9335 11.984 25.8823 11.5105C23.8306 11.037 21.7488 12.1703 21.0333 14.1503C19.5792 13.6084 17.8195 12.2887 16.2862 10.2286C15.9787 9.81257 15.6929 9.38148 15.4293 8.93672L16.9088 7.06194H32.9914L38.3313 13.7437V47.6308H11.6476V13.7437ZM25.9497 13.5749C26.8459 14.0225 27.334 15.0129 27.1435 15.9963C26.9529 16.9797 26.1304 17.7159 25.1319 17.797C24.1334 17.8777 23.2029 17.2839 22.8567 16.3434C23.4896 16.2859 24.0952 16.0567 24.6074 15.6803C25.272 15.186 25.7252 14.4691 25.9497 13.5744V13.5749ZM23.4547 14.13C23.3463 14.2092 23.2269 14.2724 23.1005 14.3177C23.3029 14.0196 23.5736 13.7748 23.8901 13.6032C23.7872 13.8097 23.6382 13.9904 23.4547 14.1305V14.13ZM9.71577 27.736V48.6496C9.71247 48.8976 9.81151 49.1363 9.98979 49.3094C10.1681 49.482 10.4096 49.574 10.6576 49.5627H30.2124L27.3104 57.7749L2.20202 48.8816L9.71577 27.736Z" fill="url(#paint0_linear)"/>
<path d="M34.6876 43.1631H15.212C14.6786 43.1631 14.2461 43.5956 14.2461 44.129C14.2461 44.6629 14.6786 45.0949 15.212 45.0949H34.6876C35.221 45.0949 35.6535 44.6629 35.6535 44.129C35.6535 43.5956 35.221 43.1631 34.6876 43.1631Z" fill="url(#paint1_linear)"/>
<path d="M34.6876 38.5752H15.212C14.6786 38.5752 14.2461 39.0077 14.2461 39.5411C14.2461 40.075 14.6786 40.507 15.212 40.507H34.6876C35.221 40.507 35.6535 40.075 35.6535 39.5411C35.6535 39.0077 35.221 38.5752 34.6876 38.5752Z" fill="url(#paint2_linear)"/>
<path d="M18.069 30.2317C18.069 27.7971 15.0071 27.9806 15.0071 27.0147C15.0071 26.7156 15.2873 26.4355 15.973 26.4355C16.7649 26.4355 16.9484 26.8024 17.296 26.8024C17.7214 26.8024 17.895 26.2709 17.895 26.0105C17.895 25.2568 16.4848 25.1602 15.973 25.1602C14.7656 25.1602 13.5002 25.711 13.5002 27.1599C13.5002 29.42 16.5621 29.2172 16.5621 30.386C16.5621 30.8496 16.0697 31.0236 15.625 31.0236C14.727 31.0236 14.4369 30.3086 13.9832 30.3086C13.6162 30.3086 13.3262 30.7916 13.3262 31.1203C13.3262 31.7575 14.3888 32.3758 15.6542 32.3758C17.055 32.3758 18.069 31.6226 18.069 30.2317Z" fill="url(#paint3_linear)"/>
<path d="M20.2613 32.2792C20.5028 32.2792 20.6957 32.2311 20.7537 32.0278L21.0825 30.8482H23.1204L23.4487 32.0278C23.5067 32.2306 23.7001 32.2933 23.9416 32.2933C24.3571 32.2933 24.9075 32.0254 24.9075 31.6679C24.9046 31.6307 24.8985 31.5939 24.8881 31.558L23.0817 25.6644C22.9752 25.3262 22.5408 25.1611 22.0965 25.1611C21.6517 25.1611 21.2173 25.3248 21.1112 25.663L19.3143 31.5552C19.3044 31.5896 19.2978 31.6255 19.2949 31.6613C19.2954 32.0188 19.8458 32.2792 20.2613 32.2792ZM22.0965 27.0524L22.8016 29.6408H21.3914L22.0965 27.0524Z" fill="url(#paint4_linear)"/>
<path d="M27.0896 32.2967H30.1421C30.4317 32.2967 30.5765 31.9613 30.5765 31.6326C30.5765 31.3043 30.4317 30.9685 30.1421 30.9685H27.9466V25.672C27.9466 25.3531 27.5386 25.2178 27.1618 25.2178C26.7854 25.2178 26.377 25.3531 26.377 25.672V31.8151C26.377 32.1245 26.7613 32.2967 27.0896 32.2967Z" fill="url(#paint5_linear)"/>
<path d="M36.2479 26.501C36.5375 26.501 36.7021 26.185 36.7021 25.8275C36.7021 25.5186 36.5667 25.1729 36.2479 25.1729H32.8091C32.4809 25.1729 32.1738 25.3724 32.1738 25.6813V31.815C32.1738 32.1239 32.4809 32.2965 32.8091 32.2965H36.2479C36.5667 32.2965 36.7021 31.9513 36.7021 31.6424C36.7021 31.2849 36.5375 30.9684 36.2479 30.9684H33.6227V29.278H35.1079C35.4268 29.278 35.5621 29.0054 35.5621 28.7446C35.5621 28.4357 35.3975 28.1914 35.1079 28.1914H33.6227V26.501H36.2479Z" fill="url(#paint6_linear)"/>
<defs>
<linearGradient id="paint0_linear" x1="20.1316" y1="0" x2="20.1316" y2="60.0001" gradientUnits="userSpaceOnUse">
<stop stop-color="#FE8338"/>
<stop offset="1" stop-color="#FD6326"/>
</linearGradient>
<linearGradient id="paint1_linear" x1="24.9498" y1="43.1631" x2="24.9498" y2="45.0949" gradientUnits="userSpaceOnUse">
<stop stop-color="#FE8338"/>
<stop offset="1" stop-color="#FD6326"/>
</linearGradient>
<linearGradient id="paint2_linear" x1="24.9498" y1="38.5752" x2="24.9498" y2="40.507" gradientUnits="userSpaceOnUse">
<stop stop-color="#FE8338"/>
<stop offset="1" stop-color="#FD6326"/>
</linearGradient>
<linearGradient id="paint3_linear" x1="15.6976" y1="25.1602" x2="15.6976" y2="32.3758" gradientUnits="userSpaceOnUse">
<stop stop-color="#FE8338"/>
<stop offset="1" stop-color="#FD6326"/>
</linearGradient>
<linearGradient id="paint4_linear" x1="22.1012" y1="25.1611" x2="22.1012" y2="32.2933" gradientUnits="userSpaceOnUse">
<stop stop-color="#FE8338"/>
<stop offset="1" stop-color="#FD6326"/>
</linearGradient>
<linearGradient id="paint5_linear" x1="28.4767" y1="25.2178" x2="28.4767" y2="32.2967" gradientUnits="userSpaceOnUse">
<stop stop-color="#FE8338"/>
<stop offset="1" stop-color="#FD6326"/>
</linearGradient>
<linearGradient id="paint6_linear" x1="34.438" y1="25.1729" x2="34.438" y2="32.2965" gradientUnits="userSpaceOnUse">
<stop stop-color="#FE8338"/>
<stop offset="1" stop-color="#FD6326"/>
</linearGradient>
</defs>
</svg>
