<svg width="100" height="48" fill="none" xmlns="http://www.w3.org/2000/svg"><path d="M58.257 16.896h-5.43c.244-.443.384-.95.384-1.49a3.1 3.1 0 00-3.096-3.097h-.193c.244-.443.384-.95.384-1.49a3.1 3.1 0 00-3.097-3.097H32.531v1.605h.726v2.982h-4.014v1.605h.918v2.982h-9.519V0H5.275v16.896H0v5.734h58.257v-5.734zM34.862 9.327H47.21c.822 0 1.491.67 1.491 1.491 0 .822-.669 1.49-1.49 1.49h-12.35v-2.98zm-3.096 4.587h18.349a1.492 1.492 0 010 2.982H31.766v-2.982zM6.881 1.605h12.156v15.291H6.88V1.606zm49.77 19.42H1.605v-2.523h55.046v2.523z" fill="url(#paint0_linear)"/><path d="M88.765 41.667c1.628-1.423 2.811-3.989 2.811-8.445 0-5.757-1.899-10.568-4.657-12.572l2.067-17.766-1.595-.186-1.998 17.169a4.765 4.765 0 00-.342-.095l-.189-11.719-1.605.026.187 11.611c-.18.024-.36.056-.535.1L81.137 4.135l-1.595.18L81.37 20.48c-2.892 1.89-4.905 6.816-4.905 12.743 0 4.457 1.183 7.023 2.812 8.445H41.743v5.734H100v-5.734H88.765zm-10.693-8.445c0-6.487 2.724-11.968 5.95-11.968 3.224 0 5.949 5.48 5.949 11.968 0 5.682-1.946 8.445-5.95 8.445-4.003 0-5.95-2.762-5.95-8.445zm20.322 12.573H43.35v-2.523h55.045v2.523z" fill="url(#paint1_linear)"/><path d="M8.257 15.1h9.403V3.402H8.257V15.1zM9.862 5.008h6.193v8.486H9.862V5.008z" fill="url(#paint2_linear)"/><defs><linearGradient id="paint0_linear" x1="29.128" y1="0" x2="29.128" y2="22.63" gradientUnits="userSpaceOnUse"><stop stop-color="#FE8338"/><stop offset="1" stop-color="#FD6326"/></linearGradient><linearGradient id="paint1_linear" x1="70.872" y1="2.698" x2="70.872" y2="47.401" gradientUnits="userSpaceOnUse"><stop stop-color="#FE8338"/><stop offset="1" stop-color="#FD6326"/></linearGradient><linearGradient id="paint2_linear" x1="12.959" y1="3.402" x2="12.959" y2="15.1" gradientUnits="userSpaceOnUse"><stop stop-color="#FE8338"/><stop offset="1" stop-color="#FD6326"/></linearGradient></defs></svg>