<svg width="78" height="80" fill="none" xmlns="http://www.w3.org/2000/svg"><path d="M76.992 38.938l-5.152-3.435a1.276 1.276 0 00-1.117-.147l-9.618 3.251-2.81-1.603a1.276 1.276 0 10-1.265 2.218l1.364.778-8.471 4.833-5.185-2.994V38.16l5.185-2.994 2.671 1.524a1.276 1.276 0 101.265-2.217l-1.375-.785 6.735-3.888 8.286 2.22a1.277 1.277 0 10.66-2.466l-5.819-1.56 4.365-2.52 4.18 1.12a1.277 1.277 0 10.662-2.466l-1.715-.46 3.335-1.925a1.276 1.276 0 10-1.276-2.211l-3.336 1.926.46-1.715a1.277 1.277 0 10-2.467-.66l-1.12 4.18-4.364 2.52 1.56-5.82a1.277 1.277 0 10-2.467-.66l-2.22 8.285-6.735 3.889.051-9.925 7.624-6.705c.298-.261.457-.646.431-1.04l-.398-6.18a1.276 1.276 0 00-1.84-1.061l-5.55 2.744a1.276 1.276 0 00-.686.894l-1.994 9.955-8.57 5.007V17.39l6.067-6.066a1.276 1.276 0 10-1.806-1.805l-4.26 4.26V8.74l3.06-3.06a1.277 1.277 0 10-1.805-1.806l-1.255 1.255V1.277a1.276 1.276 0 10-2.554 0v3.851l-1.255-1.255a1.277 1.277 0 10-1.805 1.805l3.06 3.061v5.04l-4.26-4.26a1.277 1.277 0 10-1.805 1.805l6.066 6.066v7.777l-8.57-5.007-1.994-9.956a1.276 1.276 0 00-.686-.893l-5.55-2.745a1.277 1.277 0 00-1.84 1.062l-.398 6.179c-.026.395.133.78.43 1.04l7.625 6.705.052 9.925-6.736-3.888-2.22-8.286a1.276 1.276 0 10-2.466.66l1.56 5.82-4.366-2.52-1.12-4.18a1.276 1.276 0 10-2.466.66l.46 1.715-3.336-1.925a1.276 1.276 0 10-1.277 2.21L8.16 23.67l-1.714.46a1.277 1.277 0 00.66 2.466l4.181-1.12 4.365 2.52-5.82 1.559a1.277 1.277 0 00.661 2.466l8.286-2.22 6.735 3.888-8.62 4.918-9.62-3.25a1.276 1.276 0 00-1.116.146l-5.151 3.435a1.276 1.276 0 000 2.124l5.152 3.435a1.276 1.276 0 001.116.147l9.62-3.251 8.62 4.918L18.78 50.2l-8.286-2.22a1.277 1.277 0 00-.66 2.466l5.819 1.559-4.365 2.52-4.18-1.12a1.277 1.277 0 00-.662 2.466l1.715.46-3.336 1.925a1.277 1.277 0 101.277 2.211l3.336-1.926-.46 1.715a1.277 1.277 0 102.466.66l1.12-4.18 4.365-2.52-1.559 5.82a1.277 1.277 0 102.466.66l2.22-8.285 6.736-3.89-.052 9.926-7.624 6.705a1.276 1.276 0 00-.431 1.04l.398 6.18a1.276 1.276 0 001.84 1.061l5.55-2.744c.355-.175.608-.505.686-.893l1.994-9.956 8.57-5.007v7.777l-6.066 6.066a1.276 1.276 0 101.805 1.805l4.26-4.26v5.04l-3.06 3.06a1.276 1.276 0 101.805 1.806l1.255-1.255v3.851a1.276 1.276 0 102.554 0v-3.851l1.255 1.255a1.274 1.274 0 001.805 0 1.276 1.276 0 000-1.805l-3.06-3.061v-5.04l4.26 4.26a1.273 1.273 0 001.805 0 1.276 1.276 0 000-1.805l-6.066-6.066v-7.777l8.57 5.007 1.994 9.956c.078.388.331.718.686.893l5.55 2.745a1.278 1.278 0 001.84-1.063l.398-6.178a1.277 1.277 0 00-.43-1.041l-7.625-6.705-.052-9.925 6.736 3.889 2.22 8.286a1.277 1.277 0 102.466-.661l-1.56-5.82 4.365 2.52 1.12 4.181a1.277 1.277 0 002.467-.66l-.46-1.715 3.336 1.925a1.276 1.276 0 101.277-2.211l-3.336-1.925 1.715-.46a1.276 1.276 0 10-.661-2.466l-4.181 1.12-4.365-2.52 5.82-1.56a1.277 1.277 0 10-.661-2.465l-8.286 2.22-6.735-3.889 8.62-4.918 9.62 3.251a1.27 1.27 0 001.116-.147l5.152-3.434a1.276 1.276 0 000-2.125zM53.22 11.32l3.271-1.617.235 3.641-4.747 4.175 1.241-6.199zm-31.946 2.024l.235-3.64 3.27 1.616 1.242 6.199-4.747-4.175zm-14.22 28.68L4.016 40l3.036-2.024L13.043 40l-5.99 2.024zm17.725 26.654l-3.27 1.617-.235-3.642 4.747-4.174-1.242 6.199zm15.497-40.555l8.421-4.92-.05 9.752-5.185 2.994-3.185-1.839v-5.987zm-2.553 0v5.987l-3.183 1.84-5.186-2.994-.05-9.752 8.42 4.92zm-9.646 16.709L19.606 40l8.47-4.833 5.186 2.994v3.678l-5.185 2.994zm1.226 11.963l.05-9.752 5.185-2.994 3.185 1.839v5.987l-8.42 4.92zM39 43.678l-3.185-1.84v-3.677L39 36.322l3.185 1.84v3.677L39 43.678zm1.276 8.198V45.89l3.185-1.839 5.185 2.994.05 9.752-8.42-4.92zm16.45 14.779l-.235 3.64-3.27-1.616-1.242-6.199 4.747 4.175zm14.22-24.63L64.959 40l5.989-2.024L73.983 40l-3.036 2.024z" fill="url(#paint0_linear)"/><defs><linearGradient id="paint0_linear" x1="39" y1="0" x2="39" y2="80" gradientUnits="userSpaceOnUse"><stop stop-color="#FE8338"/><stop offset="1" stop-color="#FD6326"/></linearGradient></defs></svg>