<svg width="60" height="50" viewBox="0 0 60 50" fill="none" xmlns="http://www.w3.org/2000/svg">
<path d="M26.2056 9.76092L22.9021 6.42122C22.5126 5.95559 21.8195 5.89399 21.3538 6.28353C20.8882 6.67306 20.8266 7.36621 21.2161 7.83184C21.2551 7.87834 21.2978 7.92167 21.344 7.96123L24.6475 11.3009C25.1084 11.6959 25.8023 11.6423 26.1973 11.1814C26.5467 10.7736 26.5503 10.1728 26.2056 9.76092Z" fill="url(#paint0_linear)"/>
<path d="M54.215 6.59407C53.8255 6.12845 53.1323 6.06685 52.6667 6.45638C52.6202 6.49533 52.5768 6.53806 52.5373 6.58426L49.1976 9.88772C48.732 10.2773 48.6704 10.9704 49.0599 11.436C49.4494 11.9017 50.1426 11.9633 50.6082 11.5737C50.6547 11.5348 50.698 11.492 50.7376 11.4458L54.0773 8.14238C54.5428 7.75285 54.6045 7.0597 54.215 6.59407Z" fill="url(#paint1_linear)"/>
<path d="M34.312 5.90634C34.3052 5.87434 34.2971 5.84278 34.2874 5.81153L33.0796 1.27002C32.954 0.679535 32.3734 0.302686 31.783 0.428151C31.1925 0.553616 30.8156 1.13429 30.9411 1.72478C30.9479 1.75678 30.956 1.78834 30.9657 1.81959L32.1735 6.3611C32.2992 6.95159 32.8797 7.32843 33.4702 7.20297C34.0607 7.0775 34.4377 6.49683 34.312 5.90634Z" fill="url(#paint2_linear)"/>
<path d="M49.3305 29.2918C49.1251 29.0865 48.9118 28.8852 48.6903 28.6879L48.8715 28.3618C49.0963 27.9485 49.2979 27.5231 49.4754 27.0875C52.048 20.6625 48.9249 13.3684 42.4999 10.7959C42.4879 10.791 42.4759 10.7862 42.4639 10.7815C36.6553 8.46624 30.0288 10.7852 26.9309 16.2169C19.3592 14.1022 11.5069 18.526 9.39207 26.0978C9.04014 27.3577 8.86364 28.6601 8.86757 29.9682C8.86757 30.1494 8.86757 30.3386 8.86757 30.5359C3.61086 30.9087 -0.348467 35.4722 0.0243048 40.7289C0.376543 45.6973 4.49093 49.5587 9.47149 49.5957H9.50169H40.9057C47.4731 49.6071 52.8062 44.2925 52.8177 37.7251C52.8231 34.5621 51.5682 31.5272 49.3305 29.2918ZM34.015 12.8228C36.4642 11.8488 39.1933 11.8488 41.6425 12.8228C46.9521 14.9412 49.5435 20.959 47.4342 26.2722C47.2814 26.638 47.108 26.9949 46.9148 27.3411V27.4378C43.8829 25.6752 40.2281 25.3394 36.9259 26.5198C36.3164 24.0881 35.0745 21.8608 33.3265 20.0638C34.5478 17.7964 37.2686 16.7962 39.6677 17.7327C40.2411 17.9213 40.8589 17.6092 41.0475 17.0358C41.2205 16.5098 40.9728 15.9374 40.4709 15.7035C37.2135 14.3983 33.4891 15.6143 31.6295 18.5903C30.8053 17.9706 29.9164 17.4421 28.9782 17.014C30.1577 15.1073 31.9255 13.6361 34.015 12.8228ZM43.1999 47.1319C42.4524 47.3105 41.6863 47.3997 40.9178 47.3976H9.51376C5.45464 47.394 2.16703 44.1003 2.17065 40.0412C2.17246 38.0958 2.94533 36.2306 4.32002 34.8541L4.30794 34.8601C5.68443 33.4814 7.55343 32.7076 9.50169 32.7102H9.76741H10.0029C10.6052 32.7512 11.1268 32.2962 11.1678 31.6939C11.1743 31.5996 11.1684 31.5046 11.1504 31.4117C11.1262 31.2023 11.1062 30.9749 11.09 30.7293C11.09 30.4998 11.09 30.2462 11.09 29.9623C11.1795 23.3122 16.6431 17.9937 23.2933 18.0833C29.1368 18.1619 34.0802 22.4246 35.0175 28.1928C35.104 28.7902 35.6584 29.2045 36.256 29.118C36.3713 29.1013 36.4833 29.0662 36.5877 29.0142C37.2564 28.6797 37.9616 28.4244 38.6893 28.2532C43.9026 27.0076 49.1384 30.2241 50.384 35.4373C51.6296 40.6504 48.4131 45.8863 43.1999 47.1319Z" fill="url(#paint3_linear)"/>
<path d="M59.9512 16.9518C59.7846 16.4111 59.2327 16.0871 58.6792 16.2047L54.1377 17.4126C53.5546 17.5635 53.2036 18.1577 53.3526 18.7412C53.5031 19.3258 54.0991 19.6777 54.6838 19.5272C54.685 19.5269 54.6862 19.5266 54.6873 19.5263L59.2288 18.3184C59.8058 18.1406 60.1292 17.5287 59.9512 16.9518Z" fill="url(#paint4_linear)"/>
<path d="M59.1809 27.6374L54.6514 26.3994C54.0694 26.2326 53.4625 26.5693 53.2956 27.1513C53.1288 27.7333 53.4655 28.3403 54.0475 28.5071L58.5769 29.7451C59.159 29.912 59.7659 29.5753 59.9328 28.9932C60.0994 28.4112 59.7629 27.8043 59.1809 27.6374Z" fill="url(#paint5_linear)"/>
<path d="M43.7473 0.535878C43.1652 0.369044 42.5583 0.705732 42.3915 1.28776L41.1534 5.81719C40.9807 6.3956 41.3095 7.00466 41.8879 7.17738C41.9006 7.18115 41.9134 7.18478 41.9264 7.1881C42.5056 7.35856 43.1133 7.02731 43.2838 6.44814C43.2865 6.43923 43.2889 6.43018 43.2913 6.42112L44.4991 1.89169C44.6658 1.30966 44.3293 0.702712 43.7473 0.535878Z" fill="url(#paint6_linear)"/>
<defs>
<linearGradient id="paint0_linear" x1="23.7109" y1="6.02734" x2="23.7109" y2="11.5654" gradientUnits="userSpaceOnUse">
<stop stop-color="#FE8338"/>
<stop offset="1" stop-color="#FD6326"/>
</linearGradient>
<linearGradient id="paint1_linear" x1="51.6374" y1="6.2002" x2="51.6374" y2="11.8299" gradientUnits="userSpaceOnUse">
<stop stop-color="#FE8338"/>
<stop offset="1" stop-color="#FD6326"/>
</linearGradient>
<linearGradient id="paint2_linear" x1="32.6266" y1="0.404053" x2="32.6266" y2="7.22707" gradientUnits="userSpaceOnUse">
<stop stop-color="#FE8338"/>
<stop offset="1" stop-color="#FD6326"/>
</linearGradient>
<linearGradient id="paint3_linear" x1="26.4088" y1="9.88867" x2="26.4088" y2="49.5957" gradientUnits="userSpaceOnUse">
<stop stop-color="#FE8338"/>
<stop offset="1" stop-color="#FD6326"/>
</linearGradient>
<linearGradient id="paint4_linear" x1="56.6592" y1="16.1807" x2="56.6592" y2="19.562" gradientUnits="userSpaceOnUse">
<stop stop-color="#FE8338"/>
<stop offset="1" stop-color="#FD6326"/>
</linearGradient>
<linearGradient id="paint5_linear" x1="56.6142" y1="26.3567" x2="56.6142" y2="29.7878" gradientUnits="userSpaceOnUse">
<stop stop-color="#FE8338"/>
<stop offset="1" stop-color="#FD6326"/>
</linearGradient>
<linearGradient id="paint6_linear" x1="42.8246" y1="0.493164" x2="42.8246" y2="7.23287" gradientUnits="userSpaceOnUse">
<stop stop-color="#FE8338"/>
<stop offset="1" stop-color="#FD6326"/>
</linearGradient>
</defs>
</svg>
