<svg width="30" height="30" viewBox="0 0 30 30" fill="none" xmlns="http://www.w3.org/2000/svg">
<path d="M15 30C23.2843 30 30 23.2843 30 15C30 6.71573 23.2843 0 15 0C6.71573 0 0 6.71573 0 15C0 23.2843 6.71573 30 15 30Z" fill="#41B4E6"/>
<path d="M30 15.2048C30 14.8442 29.9861 14.4869 29.9601 14.1328L23.6763 8L6 14.7861L12.7631 21.3868L12.8518 21.6984L12.9666 21.5854L12.9671 21.5859L12.8518 21.6984L20.333 29C25.9903 26.852 30 21.4857 30 15.2048Z" fill="#0091C8"/>
<path d="M13.5006 17.7442L20.4779 23L24 8L6 15.0641L11.4772 16.8741L21.4732 10.1845L13.5006 17.7442Z" fill="white"/>
<path d="M12 16.648L13.5007 22L14.0242 17.5126L22 10L12 16.648Z" fill="#D2D2D7"/>
<path d="M16 18.8914L13 22L13.5625 17L16 18.8914Z" fill="#B9B9BE"/>
</svg>
