<svg width="46" height="80" fill="none" xmlns="http://www.w3.org/2000/svg"><path d="M45.837 10.179v3.41H32.624v-3.41h13.212zm-5.54 7.43h-7.672v3.41h7.671v-3.41zm-7.672 10.84h13.212V25.04H32.624v3.41zm7.671 4.024h-7.67v3.41h7.67v-3.41zm-7.67 10.84h13.21v-3.41h-13.21v3.41zm2.058 19.427c0 9.517-7.742 17.26-17.26 17.26C7.907 80 .164 72.257.164 62.74a17.178 17.178 0 018.524-14.874V8.736C8.688 3.92 12.607 0 17.424 0c4.818 0 8.737 3.919 8.737 8.737v39.13a17.172 17.172 0 018.523 14.873zm-3.41 0c0-5.233-2.907-9.964-7.59-12.342l-.933-.474V8.738a5.332 5.332 0 00-5.327-5.327 5.333 5.333 0 00-5.327 5.327v41.186l-.932.474c-4.683 2.38-7.591 7.11-7.591 12.342 0 7.637 6.213 13.85 13.85 13.85s13.85-6.213 13.85-13.85zm-2.84 0c0 6.07-4.938 11.009-11.01 11.009-6.07 0-11.009-4.939-11.009-11.01a11.01 11.01 0 018.176-10.624l.632-.17V30.919h4.404v21.026l.632.17a11.009 11.009 0 018.176 10.626zM17.97 55.4a2.203 2.203 0 00-2.63-1.66 9.05 9.05 0 00-7.089 8.876c0 1.212.987 2.2 2.2 2.2a2.203 2.203 0 002.198-2.2c0-2.177 1.538-4.106 3.66-4.585a2.21 2.21 0 001.66-2.63z" fill="url(#paint0_linear)"/><defs><linearGradient id="paint0_linear" x1="23" y1="0" x2="23" y2="80" gradientUnits="userSpaceOnUse"><stop stop-color="#FE8338"/><stop offset="1" stop-color="#FD6326"/></linearGradient></defs></svg>