<svg width="76" height="80" fill="none" xmlns="http://www.w3.org/2000/svg"><path d="M30.947 21.468a11.598 11.598 0 012.437-.263c.835 0 1.65.093 2.437.263v-9.181l8.457-8.458L40.833.384l-5.012 5.01V0h-4.874v5.395l-5.01-5.01-3.446 3.444 8.457 8.457v9.182h-.001z" fill="url(#paint0_linear)"/><path d="M46.884 35.223v-4.874h-2.183c.169.786.264 1.601.264 2.437 0 .835-.094 1.65-.264 2.437h2.183z" fill="url(#paint1_linear)"/><path d="M35.82 65.57v-5.394l3.651 3.65a22.953 22.953 0 01-.065-1.544c0-1.762.206-3.363.577-4.835l-4.163-4.163v-9.181c-.786.168-1.601.263-2.437.263-.835 0-1.65-.093-2.437-.264v9.182l-8.457 8.457 3.445 3.445 5.01-5.01v5.395h4.876z" fill="url(#paint2_linear)"/><path d="M.982 40.233l3.445 3.446 8.457-8.458h9.181a11.598 11.598 0 01-.263-2.436c0-.836.093-1.65.264-2.437h-9.182L4.427 21.89.982 25.336l5.01 5.01H.599v4.874h5.394l-5.01 5.013z" fill="url(#paint3_linear)"/><path d="M5.147 20.141l11.96-.053 6.53 6.47a11.641 11.641 0 013.428-3.464l-6.527-6.468-.055-11.96-4.873.022.032 7.087-3.832-3.797-3.43 3.462 3.832 3.796-7.087.032.022 4.873z" fill="url(#paint4_linear)"/><path d="M43.13 26.557l3.754-3.72V13.13c0-3.746 1.723-6.318 4.269-7.586l.004-.854-4.874-.022-.055 11.96-6.527 6.468a11.63 11.63 0 013.43 3.462z" fill="url(#paint5_linear)"/><path d="M39.702 42.478l6.052 5.997c.37-.316.736-.635 1.13-.933v-4.81l-3.755-3.719a11.62 11.62 0 01-3.427 3.465z" fill="url(#paint6_linear)"/><path d="M17.107 45.484l-11.96-.053-.022 4.873 7.087.032-3.832 3.796 3.43 3.462 3.832-3.797-.032 7.087 4.874.022.055-11.96 6.526-6.468a11.659 11.659 0 01-3.428-3.464l-6.53 6.47z" fill="url(#paint7_linear)"/><path d="M33.384 41.622a8.836 8.836 0 100-17.672 8.836 8.836 0 000 17.672z" fill="url(#paint8_linear)"/><path d="M56.184 17.845v17.842h5.07V17.844c0-1.169-.152-1.992-.384-2.579-.565-1.435-1.612-1.442-2.151-1.442-.535 0-1.576.007-2.143 1.423-.236.59-.392 1.418-.392 2.6z" fill="url(#paint9_linear)"/><path d="M50.037 14.718v34.764c-1.435.908-2.699 2.05-3.791 3.34a16.4 16.4 0 00-3.562 7.326c-.22 1.073-.368 2.172-.368 3.31 0 .078.011.153.011.23C42.453 72.718 49.802 80 58.86 80c1.154 0 2.279-.12 3.365-.344 7.523-1.553 13.179-8.215 13.179-16.197 0-6.077-3.286-11.374-8.17-14.25V14.718c0-4.09-2.857-7.505-6.682-8.376a8.625 8.625 0 00-1.916-.221 8.59 8.59 0 00-7.505 4.41 8.54 8.54 0 00-1.093 4.187zm8.682-2.267c2.979 0 3.908 2.415 3.908 5.395v36.507c4.094 1.048 6.259 4.592 6.552 8.12.036.27.06.542.06.82 0 5.732-4.648 10.38-10.38 10.38-5.732 0-10.378-4.648-10.378-10.38 0-.279.025-.553.062-.825a9.76 9.76 0 01.254-1.575c.409-1.642 1.207-3.082 2.34-4.199.492-.484 1.056-.887 1.654-1.247a9.072 9.072 0 012.02-.925V17.844c0-.95.11-1.83.336-2.605.1-.351.229-.677.388-.974.339-.633.81-1.132 1.456-1.442.481-.232 1.045-.372 1.728-.372z" fill="url(#paint10_linear)"/><path d="M63.981 69.928c2.005-2.296 2.942-5.131 2.68-7.937-.177-1.9-3.824-1.914-3.646 0 .22 2.347-.506 4.518-2.181 6.436-1.368 1.565 1.796 3.049 3.147 1.501z" fill="url(#paint11_linear)"/><defs><linearGradient id="paint0_linear" x1="33.384" y1="0" x2="33.384" y2="21.468" gradientUnits="userSpaceOnUse"><stop stop-color="#FE8338"/><stop offset="1" stop-color="#FD6326"/></linearGradient><linearGradient id="paint1_linear" x1="45.793" y1="30.349" x2="45.793" y2="35.223" gradientUnits="userSpaceOnUse"><stop stop-color="#FE8338"/><stop offset="1" stop-color="#FD6326"/></linearGradient><linearGradient id="paint2_linear" x1="31.236" y1="44.102" x2="31.236" y2="65.571" gradientUnits="userSpaceOnUse"><stop stop-color="#FE8338"/><stop offset="1" stop-color="#FD6326"/></linearGradient><linearGradient id="paint3_linear" x1="11.332" y1="21.891" x2="11.332" y2="43.678" gradientUnits="userSpaceOnUse"><stop stop-color="#FE8338"/><stop offset="1" stop-color="#FD6326"/></linearGradient><linearGradient id="paint4_linear" x1="16.095" y1="4.666" x2="16.095" y2="26.558" gradientUnits="userSpaceOnUse"><stop stop-color="#FE8338"/><stop offset="1" stop-color="#FD6326"/></linearGradient><linearGradient id="paint5_linear" x1="45.429" y1="4.667" x2="45.429" y2="26.557" gradientUnits="userSpaceOnUse"><stop stop-color="#FE8338"/><stop offset="1" stop-color="#FD6326"/></linearGradient><linearGradient id="paint6_linear" x1="43.293" y1="39.013" x2="43.293" y2="48.475" gradientUnits="userSpaceOnUse"><stop stop-color="#FE8338"/><stop offset="1" stop-color="#FD6326"/></linearGradient><linearGradient id="paint7_linear" x1="16.095" y1="39.014" x2="16.095" y2="60.906" gradientUnits="userSpaceOnUse"><stop stop-color="#FE8338"/><stop offset="1" stop-color="#FD6326"/></linearGradient><linearGradient id="paint8_linear" x1="33.384" y1="23.95" x2="33.384" y2="41.622" gradientUnits="userSpaceOnUse"><stop stop-color="#FE8338"/><stop offset="1" stop-color="#FD6326"/></linearGradient><linearGradient id="paint9_linear" x1="58.719" y1="13.822" x2="58.719" y2="35.688" gradientUnits="userSpaceOnUse"><stop stop-color="#FE8338"/><stop offset="1" stop-color="#FD6326"/></linearGradient><linearGradient id="paint10_linear" x1="58.86" y1="6.121" x2="58.86" y2="80" gradientUnits="userSpaceOnUse"><stop stop-color="#FE8338"/><stop offset="1" stop-color="#FD6326"/></linearGradient><linearGradient id="paint11_linear" x1="63.601" y1="60.56" x2="63.601" y2="70.582" gradientUnits="userSpaceOnUse"><stop stop-color="#FE8338"/><stop offset="1" stop-color="#FD6326"/></linearGradient></defs></svg>