<svg width="30" height="30" viewBox="0 0 30 30" fill="none" xmlns="http://www.w3.org/2000/svg">
<path d="M15 30C23.2843 30 30 23.2843 30 15C30 6.71573 23.2843 0 15 0C6.71573 0 0 6.71573 0 15C0 23.2843 6.71573 30 15 30Z" fill="#6F3FAA"/>
<path d="M21.5071 8.22894C17.856 7.3471 14.1984 6.31562 10.4541 7.62613C8.02989 8.53521 8.02989 11.1615 8.13091 13.3837C8.13091 13.9898 7.42386 14.7979 7.72685 15.5049C8.33288 17.5251 8.83796 19.5453 10.9592 20.5554C11.2622 20.7575 10.9592 21.1615 11.1612 21.4645C11.0602 21.4645 10.8582 21.5655 10.8582 21.6665C10.8582 22.1507 11.0754 22.8913 10.9311 23.3687L17.3768 29.8117C24.0031 28.7564 29.1821 23.3624 29.9108 16.6327L21.5071 8.22894Z" fill="#512D84"/>
<path d="M22.9351 10.5423L22.9302 10.5225C22.5294 8.90222 20.7225 7.16362 19.0631 6.80192L19.0445 6.79806C16.3605 6.28606 13.6391 6.28606 10.9558 6.79806L10.9365 6.80192C9.2777 7.16362 7.47072 8.90233 7.06941 10.5225L7.06496 10.5423C6.56949 12.805 6.56949 15.0998 7.06496 17.3625L7.06941 17.3823C7.45367 18.9334 9.126 20.5922 10.7234 21.0483V22.857C10.7234 23.5117 11.5212 23.8332 11.9748 23.3607L13.8073 21.4559C14.2048 21.4781 14.6025 21.4906 15.0001 21.4906C16.3511 21.4906 17.7027 21.3628 19.0444 21.1068L19.0631 21.103C20.7225 20.7413 22.5294 19.0025 22.9302 17.3824L22.9351 17.3626C23.4305 15.0998 23.4305 12.8051 22.9351 10.5423ZM21.4849 17.0344C21.2173 18.0915 19.8454 19.4057 18.7553 19.6485C17.3282 19.9199 15.8898 20.0358 14.4529 19.9961C14.4243 19.9952 14.3968 20.0064 14.3769 20.0269C14.173 20.2362 13.0389 21.4004 13.0389 21.4004L11.6158 22.8611C11.5118 22.9696 11.3289 22.8957 11.3289 22.746V19.7497C11.3289 19.7002 11.2936 19.6582 11.245 19.6486C11.2447 19.6485 11.2445 19.6485 11.2442 19.6484C10.1541 19.4056 8.78264 18.0915 8.51457 17.0344C8.06861 14.9891 8.06861 12.9157 8.51457 10.8704C8.78264 9.81335 10.1541 8.49921 11.2442 8.2564C13.7365 7.78237 16.2635 7.78237 18.7554 8.2564C19.846 8.49921 21.2173 9.81335 21.4849 10.8704C21.9314 12.9158 21.9314 14.9892 21.4849 17.0344Z" fill="white"/>
<path d="M17.3709 18.4176C17.2033 18.3667 17.0437 18.3325 16.8952 18.2711C15.3583 17.6334 13.9438 16.8107 12.8234 15.5497C12.1863 14.8327 11.6876 14.0231 11.2661 13.1663C11.0662 12.76 10.8977 12.3379 10.726 11.9183C10.5694 11.5358 10.8 11.1407 11.0428 10.8524C11.2707 10.5819 11.564 10.3749 11.8815 10.2223C12.1294 10.1032 12.3738 10.1719 12.5549 10.3819C12.9462 10.8362 13.3057 11.3136 13.5967 11.8401C13.7757 12.1639 13.7266 12.5598 13.4022 12.7802C13.3233 12.8337 13.2515 12.8967 13.178 12.9571C13.1136 13.0102 13.053 13.0637 13.0088 13.1355C12.9281 13.2668 12.9243 13.4218 12.9762 13.5646C13.3762 14.6639 14.0504 15.5187 15.157 15.9792C15.3341 16.0529 15.5118 16.1386 15.7159 16.1149C16.0575 16.075 16.1681 15.7002 16.4075 15.5044C16.6415 15.3131 16.9405 15.3106 17.1925 15.4701C17.4447 15.6297 17.689 15.8009 17.9319 15.9741C18.1704 16.144 18.4078 16.3101 18.6277 16.5039C18.8392 16.6901 18.912 16.9345 18.7929 17.1872C18.5749 17.6501 18.2577 18.0352 17.8001 18.281C17.6709 18.3503 17.5166 18.3727 17.3709 18.4176C17.2033 18.3667 17.5166 18.3727 17.3709 18.4176Z" fill="white"/>
<path d="M15.0039 9.69269C17.0142 9.74906 18.6654 11.0832 19.0193 13.0707C19.0796 13.4093 19.101 13.7555 19.1278 14.0993C19.1392 14.2438 19.0572 14.3812 18.9013 14.3831C18.7401 14.3851 18.6676 14.2502 18.6571 14.1057C18.6364 13.8197 18.6221 13.5323 18.5826 13.2487C18.3746 11.7511 17.1804 10.5121 15.6898 10.2463C15.4654 10.2063 15.236 10.1958 15.0087 10.1719C14.8651 10.1569 14.677 10.1482 14.6452 9.9696C14.6185 9.8199 14.7448 9.70072 14.8874 9.69304C14.926 9.69076 14.965 9.69257 15.0039 9.69269C17.0143 9.74906 14.965 9.69257 15.0039 9.69269Z" fill="white"/>
<path d="M18.059 13.6533C18.0557 13.6784 18.054 13.7374 18.0392 13.793C17.9859 13.9948 17.6798 14.02 17.6094 13.8164C17.5885 13.756 17.5854 13.6872 17.5853 13.6222C17.5846 13.1964 17.4921 12.771 17.2773 12.4006C17.0566 12.0198 16.7193 11.6998 16.3239 11.506C16.0847 11.3889 15.8261 11.3161 15.564 11.2728C15.4494 11.2538 15.3337 11.2424 15.2185 11.2263C15.079 11.2069 15.0045 11.1181 15.0112 10.9806C15.0173 10.8518 15.1115 10.7591 15.2519 10.7671C15.7132 10.7932 16.1588 10.8931 16.569 11.1102C17.4031 11.5519 17.8796 12.2491 18.0187 13.1801C18.0249 13.2223 18.035 13.2641 18.0382 13.3064C18.0461 13.4108 18.0511 13.5154 18.059 13.6533C18.0557 13.6783 18.0511 13.5154 18.059 13.6533Z" fill="white"/>
<path d="M16.8089 13.6047C16.6407 13.6077 16.5507 13.5146 16.5333 13.3605C16.5213 13.253 16.5117 13.144 16.486 13.0394C16.4355 12.8333 16.326 12.6424 16.1527 12.5161C16.0709 12.4565 15.9781 12.4131 15.881 12.385C15.7577 12.3493 15.6295 12.3592 15.5065 12.329C15.3729 12.2963 15.2989 12.188 15.3199 12.0627C15.3391 11.9485 15.45 11.8595 15.5748 11.8686C16.3542 11.9248 16.9112 12.3278 16.9908 13.2453C16.9964 13.3101 17.003 13.3785 16.9886 13.4405C16.9639 13.5464 16.8854 13.5995 16.8089 13.6047C16.6407 13.6077 16.8854 13.5995 16.8089 13.6047Z" fill="white"/>
<path d="M22.9355 10.5424L22.9305 10.5226C22.7059 9.61436 22.0392 8.669 21.2045 7.94971L20.076 8.94978C20.747 9.48445 21.322 10.2251 21.4853 10.8705C21.9318 12.9158 21.9318 14.9892 21.4853 17.0346C21.2177 18.0916 19.8458 19.4058 18.7557 19.6486C17.3287 19.92 15.8903 20.036 14.4533 19.9962C14.4247 19.9954 14.3972 20.0065 14.3774 20.027C14.1734 20.2363 13.0394 21.4005 13.0394 21.4005L11.6163 22.8612C11.5122 22.9697 11.3294 22.8959 11.3294 22.7461V19.7498C11.3294 19.7003 11.2941 19.6583 11.2454 19.6487C11.2451 19.6487 11.2449 19.6486 11.2446 19.6486C10.6251 19.5106 9.915 19.0264 9.36797 18.4403L8.25293 19.4284C8.94932 20.186 9.8475 20.7984 10.7237 21.0486V22.8572C10.7237 23.5119 11.5215 23.8334 11.9751 23.361L13.8076 21.4562C14.2051 21.4784 14.6027 21.4908 15.0003 21.4908C16.3513 21.4908 17.703 21.363 19.0447 21.1071L19.0634 21.1032C20.7227 20.7415 22.5296 19.003 22.9304 17.3827L22.9353 17.3629C23.4309 15.0999 23.4309 12.8053 22.9355 10.5424Z" fill="#D1D1D1"/>
<path d="M17.3711 18.4176C17.5168 18.3727 17.2035 18.3666 17.3711 18.4176V18.4176Z" fill="white"/>
<path d="M18.6284 16.5037C18.4085 16.31 18.171 16.1438 17.9326 15.9739C17.6897 15.8007 17.4454 15.6295 17.1932 15.4699C16.9412 15.3104 16.6422 15.3129 16.4082 15.5043C16.1688 15.7 16.0582 16.0748 15.7166 16.1147C15.5126 16.1384 15.3348 16.0526 15.1577 15.979C14.4769 15.6958 13.9603 15.2627 13.5699 14.7158L12.7402 15.4512C12.7684 15.4838 12.7953 15.5173 12.824 15.5496C13.9444 16.8105 15.3589 17.6332 16.8958 18.2709C17.0441 18.3324 17.2038 18.3666 17.3714 18.4174C17.2038 18.3665 17.5172 18.3726 17.3714 18.4174C17.5172 18.3726 17.6714 18.35 17.8007 18.2808C18.2584 18.0349 18.5756 17.6498 18.7936 17.187C18.9127 16.9343 18.8399 16.69 18.6284 16.5037Z" fill="#D1D1D1"/>
<path d="M15.0095 9.69431C15.0078 9.69431 15.0061 9.69414 15.0045 9.69414C15.0028 9.69402 15.0049 9.69414 15.0095 9.69431Z" fill="white"/>
<path d="M15.0049 9.69287C15.0066 9.69287 15.0082 9.69305 15.0099 9.69305C15.1215 9.69703 16.936 9.74701 15.0049 9.69287Z" fill="white"/>
<path d="M17.8879 10.8889L17.5342 11.2025C18.0901 11.7433 18.4734 12.4601 18.5829 13.2488C18.6223 13.5326 18.6368 13.8198 18.6575 14.1059C18.668 14.2504 18.7404 14.3853 18.9016 14.3834C19.0577 14.3815 19.1395 14.2442 19.1282 14.0996C19.1013 13.7559 19.0799 13.4096 19.0196 13.0709C18.8648 12.2009 18.4612 11.4562 17.8879 10.8889Z" fill="#D1D1D1"/>
<path d="M18.0193 13.1801C17.918 12.5017 17.6366 11.9481 17.1691 11.5264L16.8164 11.839C16.9988 12.0009 17.1566 12.191 17.2781 12.4007C17.4929 12.7712 17.5854 13.1966 17.5861 13.6223C17.5862 13.6874 17.5893 13.7562 17.6102 13.8167C17.6807 14.0204 17.9867 13.9952 18.04 13.7932C18.0548 13.7376 18.0565 13.6786 18.0598 13.6536C18.0565 13.6787 18.0517 13.5157 18.0598 13.6536C18.0517 13.5157 18.0468 13.411 18.0389 13.3065C18.0358 13.264 18.0257 13.2223 18.0193 13.1801Z" fill="#D1D1D1"/>
<path d="M18.0591 13.6535C18.0511 13.5156 18.0558 13.6785 18.0591 13.6535V13.6535Z" fill="white"/>
<path d="M16.8076 13.6048C16.8101 13.6046 16.8125 13.6033 16.8148 13.603C16.8081 13.603 16.7977 13.6032 16.7871 13.6036C16.794 13.6038 16.8003 13.6048 16.8076 13.6048Z" fill="white"/>
<path d="M16.8084 13.6047C16.8009 13.6049 16.7942 13.6038 16.7869 13.6035C16.7505 13.6045 16.713 13.6064 16.8084 13.6047Z" fill="white"/>
<path d="M16.8161 13.603C16.8135 13.6033 16.8111 13.6046 16.8086 13.6048C16.8279 13.6035 16.8263 13.603 16.8161 13.603Z" fill="white"/>
<path d="M16.4538 12.1597L16.0947 12.4779C16.1145 12.49 16.1339 12.5025 16.1527 12.5162C16.3261 12.6424 16.4356 12.8333 16.4861 13.0394C16.5117 13.144 16.5212 13.2529 16.5334 13.3605C16.5499 13.5077 16.6336 13.5983 16.7874 13.6035C16.7986 13.6032 16.8096 13.603 16.8166 13.6029C16.8907 13.5947 16.9649 13.5428 16.9886 13.4404C17.003 13.3785 16.9964 13.31 16.9907 13.2452C16.9461 12.7322 16.7521 12.3803 16.4538 12.1597Z" fill="#D1D1D1"/>
</svg>
