<svg width="60" height="60" viewBox="0 0 60 60" fill="none" xmlns="http://www.w3.org/2000/svg">
<path d="M59.6994 27.9504H56.8207V14.7081C56.8207 11.5334 54.2379 8.95063 51.0632 8.95063H47.1643L43.1743 1.77683C42.5662 0.680489 41.409 0 40.1539 0C39.5689 0 38.9886 0.150861 38.4761 0.435205L23.1635 8.95045H6.05922C2.8845 8.95045 0.301758 11.5332 0.301758 14.7079V54.2424C0.301758 57.4171 2.8845 59.9998 6.05922 59.9998H51.0632C54.2379 59.9998 56.8207 57.4171 56.8207 54.2424V42.6318H59.6994V27.9504ZM51.0632 11.2535C52.8364 11.2535 54.285 12.6007 54.4796 14.3245H50.1523L48.4457 11.2535H51.0632ZM39.5965 2.448C40.1365 2.14521 40.8632 2.35698 41.1614 2.89485L47.5176 14.3234H18.2397L39.5965 2.448ZM54.5176 54.2424C54.5176 56.1469 52.9676 57.6969 51.063 57.6969H6.05922C4.15463 57.6969 2.60463 56.1469 2.60463 54.2424V14.7081C2.60463 12.8035 4.15463 11.2535 6.05922 11.2535H19.0227L13.5002 14.3247H6.77894C6.14217 14.3247 5.62742 14.8405 5.62742 15.4762C5.62742 16.1119 6.14217 16.6277 6.77894 16.6277H9.35828H51.4328H54.5176V27.9515H46.0968C42.1862 27.9515 39.0036 31.1342 39.0036 35.0446V35.5399C39.0036 39.4504 42.1864 42.633 46.0968 42.633H54.5176V54.2424ZM57.3963 40.3289H56.8207H46.0968C43.4553 40.3289 41.3065 38.1803 41.3065 35.5386V35.0434C41.3065 32.4019 43.4551 30.2531 46.0968 30.2531H56.8207H57.3963V40.3289ZM49.6237 35.3856C49.6237 36.7905 48.486 37.928 47.0813 37.928C45.6764 37.928 44.5389 36.7903 44.5389 35.3856C44.5389 33.9809 45.6766 32.8432 47.0813 32.8432C48.4862 32.843 49.6237 33.9818 49.6237 35.3856Z" fill="url(#paint0_linear)"/>
<defs>
<linearGradient id="paint0_linear" x1="30.0006" y1="0" x2="30.0006" y2="59.9998" gradientUnits="userSpaceOnUse">
<stop stop-color="#FE8338"/>
<stop offset="1" stop-color="#FD6326"/>
</linearGradient>
</defs>
</svg>
