<svg width="100" height="100" fill="none" xmlns="http://www.w3.org/2000/svg"><path d="M93.782 48.27a20.028 20.028 0 01-16.7-8.938l-1.339-2.008-1.338 2.008a20.028 20.028 0 01-16.7 8.938h-6.096v25.8c0 6.237 2.807 12.098 7.5 16.032H25.864v-6.436h20.917V54.705H12.993v12.872H3.339V3.218h70.795V32.18h3.218V0H.122v69.853L23.59 93.32h40.464l11.69 6.68 13.595-7.768a20.962 20.962 0 0010.54-18.16V48.268h-6.097zM22.647 87.828L5.614 70.795h17.033v17.033zm-6.436-20.25v-9.655h27.353V80.45h-17.7V67.577h-9.653zm80.45 6.493a17.74 17.74 0 01-8.918 15.368l-12 6.857-12-6.857a17.74 17.74 0 01-8.916-15.368V51.487h2.878a23.239 23.239 0 0018.038-8.556 23.238 23.238 0 0018.039 8.556h2.878v22.584z" fill="url(#paint0_linear)"/><path d="M90.225 64.36v9.711a11.29 11.29 0 01-5.675 9.78l1.596 2.793a14.511 14.511 0 007.297-12.573V64.36h-3.218z" fill="url(#paint1_linear)"/><path d="M9.775 6.436v9.654H67.7V6.436H9.775zm54.706 6.435H12.993V9.654h51.488v3.217z" fill="url(#paint2_linear)"/><path d="M89.087 55.177L67.698 76.565 62.4 71.267l-2.275 2.275 7.573 7.573 23.664-23.663-2.275-2.275z" fill="url(#paint3_linear)"/><path d="M40.346 61.142H19.43v3.218h20.916v-3.218z" fill="url(#paint4_linear)"/><path d="M40.346 67.577H29.083v3.218h11.263v-3.218z" fill="url(#paint5_linear)"/><path d="M40.346 74.014H29.083v3.218h11.263v-3.218z" fill="url(#paint6_linear)"/><path d="M61.263 22.525H9.775v3.218h51.488v-3.218z" fill="url(#paint7_linear)"/><path d="M61.263 28.962H9.775v3.218h51.488v-3.218z" fill="url(#paint8_linear)"/><path d="M61.263 35.398H9.775v3.217h51.488v-3.218z" fill="url(#paint9_linear)"/><path d="M40.346 41.834H9.776v3.218h30.57v-3.218z" fill="url(#paint10_linear)"/><path d="M40.346 48.27H9.776v3.217h30.57V48.27z" fill="url(#paint11_linear)"/><path d="M67.698 22.525h-3.217v3.218h3.217v-3.218z" fill="url(#paint12_linear)"/><path d="M67.698 28.962h-3.217v3.218h3.217v-3.218z" fill="url(#paint13_linear)"/><path d="M67.698 35.398h-3.217v3.217h3.217v-3.218z" fill="url(#paint14_linear)"/><path d="M46.782 41.834h-3.217v3.218h3.217v-3.218z" fill="url(#paint15_linear)"/><path d="M46.782 48.27h-3.217v3.217h3.217V48.27z" fill="url(#paint16_linear)"/><defs><linearGradient id="paint0_linear" x1="50" y1="0" x2="50" y2="100" gradientUnits="userSpaceOnUse"><stop stop-color="#FE8338"/><stop offset="1" stop-color="#FD6326"/></linearGradient><linearGradient id="paint1_linear" x1="88.996" y1="64.359" x2="88.996" y2="86.644" gradientUnits="userSpaceOnUse"><stop stop-color="#FE8338"/><stop offset="1" stop-color="#FD6326"/></linearGradient><linearGradient id="paint2_linear" x1="38.737" y1="6.436" x2="38.737" y2="16.09" gradientUnits="userSpaceOnUse"><stop stop-color="#FE8338"/><stop offset="1" stop-color="#FD6326"/></linearGradient><linearGradient id="paint3_linear" x1="75.743" y1="55.177" x2="75.743" y2="81.115" gradientUnits="userSpaceOnUse"><stop stop-color="#FE8338"/><stop offset="1" stop-color="#FD6326"/></linearGradient><linearGradient id="paint4_linear" x1="29.888" y1="61.142" x2="29.888" y2="64.36" gradientUnits="userSpaceOnUse"><stop stop-color="#FE8338"/><stop offset="1" stop-color="#FD6326"/></linearGradient><linearGradient id="paint5_linear" x1="34.715" y1="67.577" x2="34.715" y2="70.795" gradientUnits="userSpaceOnUse"><stop stop-color="#FE8338"/><stop offset="1" stop-color="#FD6326"/></linearGradient><linearGradient id="paint6_linear" x1="34.715" y1="74.014" x2="34.715" y2="77.232" gradientUnits="userSpaceOnUse"><stop stop-color="#FE8338"/><stop offset="1" stop-color="#FD6326"/></linearGradient><linearGradient id="paint7_linear" x1="35.519" y1="22.525" x2="35.519" y2="25.743" gradientUnits="userSpaceOnUse"><stop stop-color="#FE8338"/><stop offset="1" stop-color="#FD6326"/></linearGradient><linearGradient id="paint8_linear" x1="35.519" y1="28.962" x2="35.519" y2="32.18" gradientUnits="userSpaceOnUse"><stop stop-color="#FE8338"/><stop offset="1" stop-color="#FD6326"/></linearGradient><linearGradient id="paint9_linear" x1="35.519" y1="35.398" x2="35.519" y2="38.615" gradientUnits="userSpaceOnUse"><stop stop-color="#FE8338"/><stop offset="1" stop-color="#FD6326"/></linearGradient><linearGradient id="paint10_linear" x1="25.061" y1="41.834" x2="25.061" y2="45.052" gradientUnits="userSpaceOnUse"><stop stop-color="#FE8338"/><stop offset="1" stop-color="#FD6326"/></linearGradient><linearGradient id="paint11_linear" x1="25.061" y1="48.27" x2="25.061" y2="51.487" gradientUnits="userSpaceOnUse"><stop stop-color="#FE8338"/><stop offset="1" stop-color="#FD6326"/></linearGradient><linearGradient id="paint12_linear" x1="66.09" y1="22.525" x2="66.09" y2="25.743" gradientUnits="userSpaceOnUse"><stop stop-color="#FE8338"/><stop offset="1" stop-color="#FD6326"/></linearGradient><linearGradient id="paint13_linear" x1="66.09" y1="28.962" x2="66.09" y2="32.18" gradientUnits="userSpaceOnUse"><stop stop-color="#FE8338"/><stop offset="1" stop-color="#FD6326"/></linearGradient><linearGradient id="paint14_linear" x1="66.09" y1="35.398" x2="66.09" y2="38.615" gradientUnits="userSpaceOnUse"><stop stop-color="#FE8338"/><stop offset="1" stop-color="#FD6326"/></linearGradient><linearGradient id="paint15_linear" x1="45.173" y1="41.834" x2="45.173" y2="45.052" gradientUnits="userSpaceOnUse"><stop stop-color="#FE8338"/><stop offset="1" stop-color="#FD6326"/></linearGradient><linearGradient id="paint16_linear" x1="45.173" y1="48.27" x2="45.173" y2="51.487" gradientUnits="userSpaceOnUse"><stop stop-color="#FE8338"/><stop offset="1" stop-color="#FD6326"/></linearGradient></defs></svg>