<svg width="80" height="80" fill="none" xmlns="http://www.w3.org/2000/svg"><path d="M78.711 43.809c-4.972 0-9.019-4.047-9.019-9.02v-1.288H56.807V0H13.753L.113 13.64v61.093H52.1a31.07 31.07 0 008.065 5.05l.508.217.507-.218A31.014 31.014 0 0080 51.242V43.81h-1.29zM4.512 12.885l8.486-8.486v8.486H4.512zm3.332 2.577h7.731V7.73h33.501v12.885H7.844v-5.154zm-5.154 0h2.577v7.73h46.386V5.155H15.575V2.577H54.23v30.924h-2.577v1.288c0 4.972-4.047 9.02-9.02 9.02h-1.288v7.433a31.006 31.006 0 008.106 20.914H2.691V15.462zm74.733 35.78a28.441 28.441 0 01-16.75 25.95 28.44 28.44 0 01-16.75-25.95v-4.927c5.366-.596 9.64-4.87 10.235-10.236h13.028c.595 5.367 4.869 9.64 10.236 10.236v4.927z" fill="url(#paint0_linear)"/><path d="M66.22 52.174l3.368-7.859-2.368-1.014-3.25 7.583a8.964 8.964 0 00-3.297-.633c-4.972 0-9.02 4.047-9.02 9.02 0 4.972 4.048 9.019 9.02 9.019 4.972 0 9.02-4.047 9.02-9.02 0-2.88-1.364-5.444-3.473-7.096zm-5.547 13.539a6.45 6.45 0 01-6.443-6.443 6.45 6.45 0 016.443-6.442c.804 0 1.566.166 2.277.437l-2.852 6.65-2.577-1.717-1.429 2.145 5.154 3.436 3.908-9.12a6.411 6.411 0 011.961 4.611 6.45 6.45 0 01-6.442 6.443z" fill="url(#paint1_linear)"/><path d="M5.268 69.579h33.5V46.386h-33.5v23.193zm2.577-20.616H36.19v18.039H7.845v-18.04z" fill="url(#paint2_linear)"/><path d="M10.42 25.77h28.348v2.576H10.42V25.77z" fill="url(#paint3_linear)"/><path d="M5.268 25.77h2.577v2.576H5.268V25.77z" fill="url(#paint4_linear)"/><path d="M5.268 30.924h33.5V33.5h-33.5v-2.577z" fill="url(#paint5_linear)"/><path d="M5.268 36.078h33.5v2.577h-33.5v-2.577z" fill="url(#paint6_linear)"/><path d="M5.268 41.232h33.5v2.577h-33.5v-2.577z" fill="url(#paint7_linear)"/><defs><linearGradient id="paint0_linear" x1="40.057" y1="0" x2="40.057" y2="80" gradientUnits="userSpaceOnUse"><stop stop-color="#FE8338"/><stop offset="1" stop-color="#FD6326"/></linearGradient><linearGradient id="paint1_linear" x1="60.673" y1="43.301" x2="60.673" y2="68.29" gradientUnits="userSpaceOnUse"><stop stop-color="#FE8338"/><stop offset="1" stop-color="#FD6326"/></linearGradient><linearGradient id="paint2_linear" x1="22.018" y1="46.386" x2="22.018" y2="69.579" gradientUnits="userSpaceOnUse"><stop stop-color="#FE8338"/><stop offset="1" stop-color="#FD6326"/></linearGradient><linearGradient id="paint3_linear" x1="24.594" y1="25.77" x2="24.594" y2="28.346" gradientUnits="userSpaceOnUse"><stop stop-color="#FE8338"/><stop offset="1" stop-color="#FD6326"/></linearGradient><linearGradient id="paint4_linear" x1="6.556" y1="25.77" x2="6.556" y2="28.346" gradientUnits="userSpaceOnUse"><stop stop-color="#FE8338"/><stop offset="1" stop-color="#FD6326"/></linearGradient><linearGradient id="paint5_linear" x1="22.018" y1="30.924" x2="22.018" y2="33.501" gradientUnits="userSpaceOnUse"><stop stop-color="#FE8338"/><stop offset="1" stop-color="#FD6326"/></linearGradient><linearGradient id="paint6_linear" x1="22.018" y1="36.078" x2="22.018" y2="38.655" gradientUnits="userSpaceOnUse"><stop stop-color="#FE8338"/><stop offset="1" stop-color="#FD6326"/></linearGradient><linearGradient id="paint7_linear" x1="22.018" y1="41.232" x2="22.018" y2="43.809" gradientUnits="userSpaceOnUse"><stop stop-color="#FE8338"/><stop offset="1" stop-color="#FD6326"/></linearGradient></defs></svg>