<svg width="30" height="30" viewBox="0 0 30 30" fill="none" xmlns="http://www.w3.org/2000/svg">
<path d="M15.0037 0H14.9963C6.72563 0 0 6.7275 0 15C0 18.2812 1.0575 21.3225 2.85562 23.7919L0.98625 29.3644L6.75187 27.5213C9.12375 29.0925 11.9531 30 15.0037 30C23.2744 30 30 23.2706 30 15C30 6.72938 23.2744 0 15.0037 0Z" fill="#4CAF50"/>
<path d="M23.732 21.1818C23.3702 22.2037 21.9339 23.0512 20.7883 23.2987C20.0045 23.4656 18.9808 23.5987 15.5345 22.17C11.1264 20.3437 8.28766 15.8643 8.06641 15.5737C7.85453 15.2831 6.28516 13.2018 6.28516 11.0493C6.28516 8.89685 7.37828 7.84872 7.81891 7.39872C8.18078 7.02935 8.77891 6.8606 9.35266 6.8606C9.53828 6.8606 9.70516 6.86997 9.85516 6.87747C10.2958 6.89622 10.517 6.92247 10.8077 7.6181C11.1695 8.48997 12.0508 10.6425 12.1558 10.8637C12.2627 11.085 12.3695 11.385 12.2195 11.6756C12.0789 11.9756 11.9552 12.1087 11.7339 12.3637C11.5127 12.6187 11.3027 12.8137 11.0814 13.0875C10.8789 13.3256 10.6502 13.5806 10.9052 14.0212C11.1602 14.4525 12.0414 15.8906 13.3389 17.0456C15.0133 18.5362 16.3708 19.0125 16.8564 19.215C17.2183 19.365 17.6495 19.3293 17.9139 19.0481C18.2495 18.6862 18.6639 18.0862 19.0858 17.4956C19.3858 17.0718 19.7645 17.0193 20.162 17.1693C20.567 17.31 22.7102 18.3693 23.1508 18.5887C23.5914 18.81 23.882 18.915 23.9889 19.1006C24.0939 19.2862 24.0939 20.1581 23.732 21.1818Z" fill="#FAFAFA"/>
</svg>
