<svg width="94" height="94" fill="none" xmlns="http://www.w3.org/2000/svg"><path d="M89.138 81.424H4.764c-.863 0-1.563-.7-1.563-1.563V3.3A3.125 3.125 0 016.326.174h81.25a3.125 3.125 0 013.126 3.125v76.562c0 .864-.7 1.563-1.564 1.563zM6.326 78.299h81.25v-75H6.326v75z" fill="url(#paint0_linear)"/><path d="M43.826 75.174H11.014c-.864 0-1.563-.7-1.563-1.563V7.987c0-.864.7-1.563 1.563-1.563h32.812c.863 0 1.563.7 1.563 1.563V73.61c0 .863-.7 1.563-1.563 1.563zm-31.25-3.125h29.687v-62.5H12.576v62.5z" fill="url(#paint1_linear)"/><path d="M90.701 93.924h-87.5a3.125 3.125 0 01-3.125-3.125V86.11c0-.242.056-.481.164-.698l3.125-6.25c.265-.53.806-.864 1.399-.864h84.374a1.562 1.562 0 011.407.864l3.125 6.25c.105.217.159.456.156.698v4.688a3.125 3.125 0 01-3.125 3.125zm-87.5-7.444v4.319h87.5v-4.32l-2.528-5.055H5.73L3.2 86.48z" fill="url(#paint2_linear)"/><path d="M9.451 87.674H1.64a1.563 1.563 0 110-3.125h7.81a1.563 1.563 0 010 3.125z" fill="url(#paint3_linear)"/><path d="M92.263 87.674H15.701a1.563 1.563 0 010-3.125h76.562a1.563 1.563 0 010 3.125z" fill="url(#paint4_linear)"/><path d="M28.201 75.174c-.863 0-1.562-.7-1.562-1.563V7.987a1.563 1.563 0 113.125 0V73.61c0 .863-.7 1.563-1.563 1.563z" fill="url(#paint5_linear)"/><path d="M43.826 26.736H11.014a1.562 1.562 0 110-3.125h32.812a1.563 1.563 0 010 3.125z" fill="url(#paint6_linear)"/><path d="M43.826 42.361H11.014a1.562 1.562 0 110-3.125h32.812a1.562 1.562 0 010 3.125z" fill="url(#paint7_linear)"/><path d="M43.826 57.986H11.014a1.562 1.562 0 110-3.124h32.812a1.562 1.562 0 010 3.124z" fill="url(#paint8_linear)"/><path d="M82.888 75.174H50.076c-.862 0-1.562-.7-1.562-1.563V7.987c0-.864.7-1.563 1.562-1.563h32.812c.864 0 1.563.7 1.563 1.563V73.61c0 .863-.7 1.563-1.563 1.563zm-31.25-3.125h29.688v-62.5H51.64v62.5z" fill="url(#paint9_linear)"/><path d="M65.7 75.174c-.862 0-1.561-.7-1.561-1.563V7.987a1.562 1.562 0 113.125 0V73.61c0 .863-.7 1.563-1.563 1.563z" fill="url(#paint10_linear)"/><path d="M82.888 26.736H50.076a1.563 1.563 0 010-3.125h32.812a1.563 1.563 0 110 3.125z" fill="url(#paint11_linear)"/><path d="M82.888 42.361H50.076a1.563 1.563 0 010-3.125h32.812a1.562 1.562 0 110 3.125z" fill="url(#paint12_linear)"/><path d="M82.888 57.986H50.076a1.562 1.562 0 010-3.124h32.812a1.562 1.562 0 110 3.124z" fill="url(#paint13_linear)"/><defs><linearGradient id="paint0_linear" x1="46.951" y1=".174" x2="46.951" y2="81.424" gradientUnits="userSpaceOnUse"><stop stop-color="#FE8338"/><stop offset="1" stop-color="#FD6326"/></linearGradient><linearGradient id="paint1_linear" x1="27.42" y1="6.424" x2="27.42" y2="75.174" gradientUnits="userSpaceOnUse"><stop stop-color="#FE8338"/><stop offset="1" stop-color="#FD6326"/></linearGradient><linearGradient id="paint2_linear" x1="46.951" y1="78.299" x2="46.951" y2="93.924" gradientUnits="userSpaceOnUse"><stop stop-color="#FE8338"/><stop offset="1" stop-color="#FD6326"/></linearGradient><linearGradient id="paint3_linear" x1="5.545" y1="84.549" x2="5.545" y2="87.674" gradientUnits="userSpaceOnUse"><stop stop-color="#FE8338"/><stop offset="1" stop-color="#FD6326"/></linearGradient><linearGradient id="paint4_linear" x1="53.982" y1="84.549" x2="53.982" y2="87.674" gradientUnits="userSpaceOnUse"><stop stop-color="#FE8338"/><stop offset="1" stop-color="#FD6326"/></linearGradient><linearGradient id="paint5_linear" x1="28.201" y1="6.424" x2="28.201" y2="75.174" gradientUnits="userSpaceOnUse"><stop stop-color="#FE8338"/><stop offset="1" stop-color="#FD6326"/></linearGradient><linearGradient id="paint6_linear" x1="27.42" y1="23.611" x2="27.42" y2="26.736" gradientUnits="userSpaceOnUse"><stop stop-color="#FE8338"/><stop offset="1" stop-color="#FD6326"/></linearGradient><linearGradient id="paint7_linear" x1="27.42" y1="39.236" x2="27.42" y2="42.361" gradientUnits="userSpaceOnUse"><stop stop-color="#FE8338"/><stop offset="1" stop-color="#FD6326"/></linearGradient><linearGradient id="paint8_linear" x1="27.42" y1="54.862" x2="27.42" y2="57.986" gradientUnits="userSpaceOnUse"><stop stop-color="#FE8338"/><stop offset="1" stop-color="#FD6326"/></linearGradient><linearGradient id="paint9_linear" x1="66.482" y1="6.424" x2="66.482" y2="75.174" gradientUnits="userSpaceOnUse"><stop stop-color="#FE8338"/><stop offset="1" stop-color="#FD6326"/></linearGradient><linearGradient id="paint10_linear" x1="65.701" y1="6.424" x2="65.701" y2="75.174" gradientUnits="userSpaceOnUse"><stop stop-color="#FE8338"/><stop offset="1" stop-color="#FD6326"/></linearGradient><linearGradient id="paint11_linear" x1="66.482" y1="23.611" x2="66.482" y2="26.736" gradientUnits="userSpaceOnUse"><stop stop-color="#FE8338"/><stop offset="1" stop-color="#FD6326"/></linearGradient><linearGradient id="paint12_linear" x1="66.482" y1="39.236" x2="66.482" y2="42.361" gradientUnits="userSpaceOnUse"><stop stop-color="#FE8338"/><stop offset="1" stop-color="#FD6326"/></linearGradient><linearGradient id="paint13_linear" x1="66.482" y1="54.862" x2="66.482" y2="57.986" gradientUnits="userSpaceOnUse"><stop stop-color="#FE8338"/><stop offset="1" stop-color="#FD6326"/></linearGradient></defs></svg>