<?xml version="1.0" encoding="utf-8"?><svg xmlns="http://www.w3.org/2000/svg" xmlns:xlink="http://www.w3.org/1999/xlink"><symbol viewBox="0 0 84 100" id="apartment" xmlns="http://www.w3.org/2000/svg"><path d="M46.683 17.523c0-.81-.655-1.465-1.465-1.465H38.71c-.81 0-1.465.656-1.465 1.465V29.24c0 .81.656 1.465 1.465 1.465h6.51c.809 0 1.464-.656 1.464-1.465V17.523zm-2.93 10.253h-3.58v-8.789h3.58v8.789zM46.683 44.43c0-.808-.655-1.464-1.465-1.464H38.71c-.81 0-1.465.656-1.465 1.465v11.718c0 .808.656 1.465 1.465 1.465h6.51c.809 0 1.464-.657 1.464-1.465V44.43zm-2.93 10.254h-3.58v-8.788h3.58v8.788zM45.218 69.873H38.71c-.81 0-1.465.656-1.465 1.465v11.718c0 .81.656 1.465 1.465 1.465h6.51c.809 0 1.464-.656 1.464-1.465V71.338c0-.809-.655-1.465-1.465-1.465zm-1.465 11.718h-3.58v-8.788h3.58v8.788z"/><path d="M81.87 38.032c1.13 0 2.05-.92 2.05-2.051v-5.207c0-1.13-.92-2.05-2.05-2.05h-1.625V12.726a2.64 2.64 0 00-2.636-2.637h-20.02a1.465 1.465 0 000 2.93h19.727v15.703h-2.51v-6.028a2.249 2.249 0 00-2.246-2.246h-9.337a2.249 2.249 0 00-2.246 2.246v6.028h-1.92c-1.131 0-2.05.92-2.05 2.05v5.208c0 1.13.919 2.05 2.05 2.05h18.259v16.334h-2.51v-6.027a2.248 2.248 0 00-2.246-2.246h-9.337a2.248 2.248 0 00-2.246 2.246v6.027h-1.92c-1.131 0-2.05.92-2.05 2.051v5.207c0 1.131.919 2.05 2.05 2.05h18.259v16.334h-2.51V73.98a2.249 2.249 0 00-2.246-2.246h-9.337a2.249 2.249 0 00-2.246 2.246v6.028h-1.92c-1.131 0-2.05.92-2.05 2.051v5.207c0 1.13.919 2.05 2.05 2.05h18.259v7.755H52.868V83.057a1.464 1.464 0 10-2.93 0V97.07H33.99V23.365a1.465 1.465 0 10-2.93 0V97.07H6.613v-7.754H24.87c1.132 0 2.051-.92 2.051-2.051v-5.207c0-1.13-.92-2.05-2.05-2.05H22.95v-6.029a2.249 2.249 0 00-2.246-2.246h-9.337a2.248 2.248 0 00-2.246 2.246v6.028h-2.51V63.674h18.26c1.13 0 2.05-.92 2.05-2.05v-5.208c0-1.131-.92-2.05-2.05-2.05H22.95v-6.028a2.248 2.248 0 00-2.246-2.246h-9.337a2.248 2.248 0 00-2.246 2.246v6.027h-2.51V38.032h18.26c1.13 0 2.05-.92 2.05-2.051v-5.207c0-1.13-.92-2.05-2.05-2.05H22.95v-6.029a2.249 2.249 0 00-2.246-2.246h-9.337a2.248 2.248 0 00-2.246 2.246v6.028h-2.51V13.02H31.06v4.486a1.465 1.465 0 102.93 0V2.93h15.95v74.267a1.465 1.465 0 002.93 0V2.247A2.249 2.249 0 0050.621 0H33.306a2.249 2.249 0 00-2.247 2.246v7.844H6.32a2.64 2.64 0 00-2.636 2.637v15.996H2.059c-1.131 0-2.051.92-2.051 2.05v5.208c0 1.13.92 2.05 2.05 2.05h1.625v16.334H2.059c-1.131 0-2.051.92-2.051 2.051v5.207c0 1.131.92 2.05 2.05 2.05h1.625v16.334H2.059c-1.131 0-2.051.92-2.051 2.051v5.207c0 1.13.92 2.05 2.05 2.05h1.625v8.048A2.64 2.64 0 006.32 100h71.289a2.64 2.64 0 002.636-2.637v-8.047h1.625c1.13 0 2.05-.92 2.05-2.051v-5.207c0-1.13-.92-2.05-2.05-2.05h-1.625V63.673h1.625c1.13 0 2.05-.92 2.05-2.05v-5.208c0-1.131-.92-2.05-2.05-2.05h-1.625V38.031h1.625zM12.052 23.379h7.97v5.344h-7.97V23.38zm-9.114 8.274h21.054v3.45H2.937v-3.45zm9.114 17.368h7.97v5.344h-7.97v-5.344zm-9.114 8.274h21.054v3.449H2.937v-3.449zm9.114 17.368h7.97v5.344h-7.97v-5.344zm-9.114 8.274h21.054v3.45H2.937v-3.45zm60.969-8.274h7.97v5.344h-7.97v-5.344zm17.084 11.723H59.935v-3.45h21.056v3.45zM63.907 49.021h7.97v5.344h-7.97v-5.344zm17.084 11.723H59.935v-3.449h21.056v3.449zM63.907 23.379h7.97v5.344h-7.97V23.38zm-3.972 8.274h21.056v3.45H59.935v-3.45z"/><defs><linearGradient id="apaint0_linear" x1="41.964" y1="16.058" x2="41.964" y2="30.705" gradientUnits="userSpaceOnUse"><stop stop-color="#FE8338"/><stop offset="1" stop-color="#FD6326"/></linearGradient><linearGradient id="apaint1_linear" x1="41.964" y1="42.966" x2="41.964" y2="57.614" gradientUnits="userSpaceOnUse"><stop stop-color="#FE8338"/><stop offset="1" stop-color="#FD6326"/></linearGradient><linearGradient id="apaint2_linear" x1="41.964" y1="69.873" x2="41.964" y2="84.521" gradientUnits="userSpaceOnUse"><stop stop-color="#FE8338"/><stop offset="1" stop-color="#FD6326"/></linearGradient><linearGradient id="apaint3_linear" x1="41.964" y1="0" x2="41.964" y2="100" gradientUnits="userSpaceOnUse"><stop stop-color="#FE8338"/><stop offset="1" stop-color="#FD6326"/></linearGradient></defs></symbol><symbol viewBox="0 0 14 20" id="arrow-left" xmlns="http://www.w3.org/2000/svg"><path d="M10.834 0l2.333 2.333L5.5 10l7.667 7.667L10.834 20l-10-10 10-10z"/></symbol><symbol viewBox="0 0 14 20" id="arrow-right" xmlns="http://www.w3.org/2000/svg"><path d="M3.166 0L.833 2.333 8.5 10 .833 17.667 3.166 20l10-10-10-10z"/></symbol><symbol viewBox="0 0 70 100" id="balcony" xmlns="http://www.w3.org/2000/svg"><path d="M63.368 0H6.633v3.061h56.735V0zM8.878 4.388v3.061h2.908V23.01h3.061V7.45H33.47v42.96h3.06V7.448h18.623v42.96h3.062V7.448h2.908v-3.06H8.878z"/><path d="M58.215 50.408h-3.062V54h3.062v-3.592zM33.47 50l.03 3.5h3.03v-3.092L35 40.5 33.47 50zM15 33h-3v21h3V33z"/><path d="M65.442 89.376v-12.31a4.537 4.537 0 003-4.264 4.538 4.538 0 00-3-4.264v-9.354h-3.06v9.354c-1.748.63-3 2.303-3 4.264a4.538 4.538 0 003 4.264v12.31H50.986v-12.31a4.54 4.54 0 003-4.264 4.538 4.538 0 00-3-4.264v-12.31H70v-3.06H0v3.06h4.558v12.31a4.54 4.54 0 00-3 4.264 4.538 4.538 0 003 4.264v12.31H0v1.531C0 95.921 4.08 100 9.093 100h51.814C65.921 100 70 95.92 70 90.907v-1.531h-4.558zm-1.53-18.043c.81 0 1.469.659 1.469 1.47a1.47 1.47 0 01-2.939-.001c0-.81.66-1.47 1.47-1.47zm-14.456 0c.81 0 1.47.66 1.47 1.47a1.47 1.47 0 01-2.94-.001c0-.81.66-1.47 1.47-1.47zM36.53 77.066a4.538 4.538 0 003-4.264 4.538 4.538 0 00-3-4.264v-12.31h11.394v12.31a4.54 4.54 0 00-3 4.264 4.538 4.538 0 003 4.264v12.31H36.531v-12.31zM35 71.333c.81 0 1.47.659 1.47 1.47a1.47 1.47 0 01-2.939 0c0-.811.659-1.47 1.469-1.47zm-12.925 5.733a4.538 4.538 0 003-4.264 4.538 4.538 0 00-3-4.264v-12.31h11.394v12.31a4.54 4.54 0 00-3 4.264 4.538 4.538 0 003 4.264v12.31H22.075v-12.31zm-1.53-5.733c.81 0 1.469.66 1.469 1.47a1.47 1.47 0 01-2.939-.001c0-.81.66-1.47 1.47-1.47zM7.618 77.066a4.537 4.537 0 003-4.264 4.538 4.538 0 00-3-4.263v-12.31h11.395v12.31a4.537 4.537 0 00-3 4.263 4.538 4.538 0 003 4.264v12.31H7.619v-12.31zm-1.53-5.733c.81 0 1.469.659 1.469 1.47a1.47 1.47 0 01-2.939-.001c0-.81.66-1.47 1.47-1.47zm54.818 25.606H9.093a6.043 6.043 0 01-5.835-4.502h63.484a6.043 6.043 0 01-5.835 4.502z"/><path d="M62.381 59.184h3.061v-2.956h-3.06v2.956zM14.846 26.582h-3.06v3.06h3.06v-3.06zM25.093 19.136l-7.61 10.867 2.508 1.756 7.61-10.867-2.508-1.756zM28.035 24.568l-7.61 10.867 2.509 1.756 7.609-10.867-2.508-1.756zM47.07 19.134L39.46 30l2.508 1.756 7.61-10.867-2.509-1.756zM50.017 24.569l-7.61 10.867 2.508 1.756 7.61-10.867-2.508-1.756z"/><defs><linearGradient id="dpaint0_linear" x1="35" y1="0" x2="35" y2="3.061" gradientUnits="userSpaceOnUse"><stop stop-color="#FE8338"/><stop offset="1" stop-color="#FD6326"/></linearGradient><linearGradient id="dpaint1_linear" x1="35" y1="4.388" x2="35" y2="54" gradientUnits="userSpaceOnUse"><stop stop-color="#FE8338"/><stop offset="1" stop-color="#FD6326"/></linearGradient><linearGradient id="dpaint2_linear" x1="35" y1="4.388" x2="35" y2="54" gradientUnits="userSpaceOnUse"><stop stop-color="#FE8338"/><stop offset="1" stop-color="#FD6326"/></linearGradient><linearGradient id="dpaint3_linear" x1="35" y1="4.388" x2="35" y2="54" gradientUnits="userSpaceOnUse"><stop stop-color="#FE8338"/><stop offset="1" stop-color="#FD6326"/></linearGradient><linearGradient id="dpaint4_linear" x1="13.5" y1="33" x2="13.5" y2="54" gradientUnits="userSpaceOnUse"><stop stop-color="#FE8338"/><stop offset="1" stop-color="#FD6326"/></linearGradient><linearGradient id="dpaint5_linear" x1="35" y1="53.167" x2="35" y2="100" gradientUnits="userSpaceOnUse"><stop stop-color="#FE8338"/><stop offset="1" stop-color="#FD6326"/></linearGradient><linearGradient id="dpaint6_linear" x1="35" y1="53.167" x2="35" y2="100" gradientUnits="userSpaceOnUse"><stop stop-color="#FE8338"/><stop offset="1" stop-color="#FD6326"/></linearGradient><linearGradient id="dpaint7_linear" x1="13.316" y1="26.582" x2="13.316" y2="29.643" gradientUnits="userSpaceOnUse"><stop stop-color="#FE8338"/><stop offset="1" stop-color="#FD6326"/></linearGradient><linearGradient id="dpaint8_linear" x1="21.288" y1="24.57" x2="23.796" y2="26.326" gradientUnits="userSpaceOnUse"><stop stop-color="#FE8338"/><stop offset="1" stop-color="#FD6326"/></linearGradient><linearGradient id="dpaint9_linear" x1="24.23" y1="30.002" x2="26.738" y2="31.758" gradientUnits="userSpaceOnUse"><stop stop-color="#FE8338"/><stop offset="1" stop-color="#FD6326"/></linearGradient><linearGradient id="dpaint10_linear" x1="43.265" y1="24.567" x2="45.773" y2="26.323" gradientUnits="userSpaceOnUse"><stop stop-color="#FE8338"/><stop offset="1" stop-color="#FD6326"/></linearGradient><linearGradient id="dpaint11_linear" x1="46.212" y1="30.002" x2="48.72" y2="31.758" gradientUnits="userSpaceOnUse"><stop stop-color="#FE8338"/><stop offset="1" stop-color="#FD6326"/></linearGradient></defs></symbol><symbol viewBox="0 0 100 100" id="icon-1" xmlns="http://www.w3.org/2000/svg"><path d="M0 0v100h100V0H0zm96.774 96.774H3.226V3.226h93.548v93.548z"/><path d="M91.935 53.226V8.065H37.192a14.33 14.33 0 01-.096-1.613h-3.225c0 .545-.036 1.082-.096 1.613H8.065v83.871h83.87v-38.71zM88.71 11.291v32.258h-8.933c-2.898-3.373-5.2-7.094-7.013-10.805l10.635-10.636-2.28-2.28-9.778 9.777c-3.301-7.822-4.577-15.1-5.013-18.315H88.71zm-53.225 2.55a17.858 17.858 0 008.738 8.74 17.851 17.851 0 00-8.738 8.74 17.856 17.856 0 00-8.74-8.74 17.85 17.85 0 008.74-8.74zM11.29 11.29h21.734c-1.998 5.628-7.363 9.677-13.67 9.677v3.226c3.604 0 6.898 1.327 9.438 3.51-1.708 4.248-4.605 11.101-8.595 15.845H11.29V11.29zm0 35.483h8.065V50H11.29v-3.226zm0 6.452h8.557a204.97 204.97 0 014.441 13.753l-12.998 13V53.226zm0 35.484v-4.171l13.983-13.982c1.506 5.703 2.896 12.084 3.585 18.153H11.29zm37.096-27.985a9.634 9.634 0 01-3.225.565v3.226c1.132 0 2.214.206 3.225.564v23.63H32.103c-.768-7.06-2.442-14.447-4.186-20.799l13.546-13.545-2.281-2.28L26.908 64.36c-1.994-6.768-3.857-11.8-4.328-13.046v-5.587c3.91-4.608 6.778-10.913 8.618-15.384a14.422 14.422 0 012.672 8.366h3.226c0-6.895 4.836-12.669 11.29-14.142v36.158zm0-40.131c-4.864-1.11-8.796-4.665-10.443-9.304h10.444v9.304zm3.227 68.116V67c1.974 1.773 3.226 4.336 3.226 7.194h3.225c0-5.338 4.34-9.678 9.678-9.678V61.29c-5.337 0-9.678-4.34-9.678-9.677H54.84c0 2.857-1.252 5.42-3.226 7.193V11.29h11.451c.408 3.343 1.774 11.792 5.8 20.79L57.73 43.216l2.28 2.28 10.333-10.332c1.863 3.628 4.185 7.255 7.074 10.594v5.56c-.957 2.537-7.724 20.87-9.52 37.393H51.612zm-.21-25.807a12.993 12.993 0 005.049-5.048 13.002 13.002 0 005.048 5.048 12.994 12.994 0 00-5.048 5.049 12.996 12.996 0 00-5.049-5.049zM88.71 88.708H71.142c1.665-14.691 7.461-31.242 9.01-35.482h1.693c-.597 2.729-1.692 8.168-2.797 15.9l3.192.456c1.186-8.291 2.38-13.994 2.91-16.358h3.56v35.484zm0-38.708h-8.064v-3.226h8.065V50z"/><path d="M60.15 31.117l-4.84 4.84 2.282 2.28 4.839-4.839-2.281-2.281zM32.73 74.667l2.28 2.281 8.065-8.064-2.28-2.281-8.065 8.064z"/><defs><linearGradient id="epaint0_linear" x1="50" y1="0" x2="50" y2="100" gradientUnits="userSpaceOnUse"><stop stop-color="#FE8338"/><stop offset="1" stop-color="#FD6326"/></linearGradient><linearGradient id="epaint1_linear" x1="50" y1="6.452" x2="50" y2="91.936" gradientUnits="userSpaceOnUse"><stop stop-color="#FE8338"/><stop offset="1" stop-color="#FD6326"/></linearGradient><linearGradient id="epaint2_linear" x1="57.73" y1="33.536" x2="60.011" y2="35.818" gradientUnits="userSpaceOnUse"><stop stop-color="#FE8338"/><stop offset="1" stop-color="#FD6326"/></linearGradient><linearGradient id="epaint3_linear" x1="33.87" y1="75.808" x2="41.935" y2="67.743" gradientUnits="userSpaceOnUse"><stop stop-color="#FE8338"/><stop offset="1" stop-color="#FD6326"/></linearGradient></defs></symbol><symbol viewBox="0 0 58 100" id="icon-2" xmlns="http://www.w3.org/2000/svg"><path d="M57.09 12.724v4.261H40.576v-4.261H57.09zm-6.925 9.288h-9.589v4.262h9.59v-4.262zm-9.589 13.55H57.09v-4.261H40.576v4.261zm9.59 5.03h-9.59v4.261h9.59v-4.262zm-9.59 13.55H57.09v-4.263H40.576v4.262zm2.575 24.283C43.15 90.32 33.47 100 21.575 100S0 90.321 0 78.425c0-7.71 4.049-14.716 10.654-18.592V10.92c0-6.021 4.9-10.92 10.921-10.92 6.022 0 10.921 4.899 10.921 10.92v48.913A21.464 21.464 0 0143.15 78.425zm-4.262 0c0-6.542-3.636-12.455-9.49-15.428l-1.165-.592V10.923a6.666 6.666 0 00-6.659-6.66 6.666 6.666 0 00-6.659 6.66v51.482l-1.165.592c-5.854 2.975-9.49 8.888-9.49 15.428 0 9.546 7.768 17.313 17.314 17.313 9.547 0 17.314-7.767 17.314-17.313zm-3.55 0c0 7.588-6.174 13.761-13.764 13.761-7.588 0-13.761-6.173-13.761-13.761 0-6.22 4.202-11.682 10.22-13.282l.79-.21V38.647h5.504V64.93l.79.213c6.02 1.6 10.22 7.064 10.22 13.282zM22.257 69.25a2.754 2.754 0 00-3.288-2.075c-5.216 1.18-8.86 5.742-8.86 11.096a2.753 2.753 0 002.749 2.748 2.753 2.753 0 002.749-2.748c0-2.722 1.922-5.134 4.575-5.732a2.762 2.762 0 002.075-3.289z"/><defs><linearGradient id="fpaint0_linear" x1="28.545" y1="0" x2="28.545" y2="100" gradientUnits="userSpaceOnUse"><stop stop-color="#FE8338"/><stop offset="1" stop-color="#FD6326"/></linearGradient></defs></symbol><symbol viewBox="0 0 96 96" id="icon-3" xmlns="http://www.w3.org/2000/svg"><path d="M47.851 15.879c-14.492 0-24.96 10.8-26.621 22.402-1.035 7.735 1.465 15.274 6.66 20.977 4.57 4.883 7.07 11.406 7.07 18.125l-.019 10.586c0 4.277 3.535 7.734 7.91 7.734h10.195c4.375 0 7.91-3.457 7.91-7.734l.02-10.586c0-6.914 2.285-13.242 6.66-17.715 4.785-4.883 7.285-11.191 7.285-17.715-.02-14.473-12.304-26.074-27.07-26.074zm9.14 72.09c0 2.031-1.66 3.672-3.75 3.672H43.047c-2.09 0-3.75-1.622-3.75-3.672V83.28h17.676v4.688h.02zm7.735-31.153c-5.195 5.293-7.91 12.618-7.91 20.567v1.836H39.14v-1.836c0-7.54-3.125-15.059-8.32-20.762-4.57-4.883-6.445-11.191-5.625-17.715 1.465-9.765 10.547-18.945 22.676-18.945 12.695 0 22.89 9.98 22.89 21.992 0 5.488-2.09 10.781-6.035 14.863zM49.922 0h-4.16v9.766h4.16V0zM73.066 18.828l2.91 2.91 7.13-6.855-2.93-2.91-7.11 6.855zM95.703 43.984H85.508v4.082h10.195v-4.082zM10.195 43.984H0v4.082h10.195v-4.082zM15.45 11.953l-2.93 2.91 7.128 6.856 2.91-2.91-7.109-6.856z"/><defs><linearGradient id="gpaint0_linear" x1="47.961" y1="15.879" x2="47.961" y2="95.703" gradientUnits="userSpaceOnUse"><stop stop-color="#FE8338"/><stop offset="1" stop-color="#FD6326"/></linearGradient><linearGradient id="gpaint1_linear" x1="47.842" y1="0" x2="47.842" y2="9.766" gradientUnits="userSpaceOnUse"><stop stop-color="#FE8338"/><stop offset="1" stop-color="#FD6326"/></linearGradient><linearGradient id="gpaint2_linear" x1="78.086" y1="11.973" x2="78.086" y2="21.738" gradientUnits="userSpaceOnUse"><stop stop-color="#FE8338"/><stop offset="1" stop-color="#FD6326"/></linearGradient><linearGradient id="gpaint3_linear" x1="90.606" y1="43.984" x2="90.606" y2="48.066" gradientUnits="userSpaceOnUse"><stop stop-color="#FE8338"/><stop offset="1" stop-color="#FD6326"/></linearGradient><linearGradient id="gpaint4_linear" x1="5.098" y1="43.984" x2="5.098" y2="48.066" gradientUnits="userSpaceOnUse"><stop stop-color="#FE8338"/><stop offset="1" stop-color="#FD6326"/></linearGradient><linearGradient id="gpaint5_linear" x1="17.539" y1="11.953" x2="17.539" y2="21.719" gradientUnits="userSpaceOnUse"><stop stop-color="#FE8338"/><stop offset="1" stop-color="#FD6326"/></linearGradient></defs></symbol><symbol viewBox="0 0 512.001 512.001" id="instagram" xmlns="http://www.w3.org/2000/svg"><path d="M373.406 0H138.594C62.172 0 0 62.172 0 138.594V373.41C0 449.828 62.172 512 138.594 512H373.41C449.828 512 512 449.828 512 373.41V138.594C512 62.172 449.828 0 373.406 0zm108.578 373.41c0 59.867-48.707 108.574-108.578 108.574H138.594c-59.871 0-108.578-48.707-108.578-108.574V138.594c0-59.871 48.707-108.578 108.578-108.578H373.41c59.867 0 108.574 48.707 108.574 108.578zm0 0"/><path d="M256 116.004c-77.195 0-139.996 62.8-139.996 139.996S178.804 395.996 256 395.996 395.996 333.196 395.996 256 333.196 116.004 256 116.004zm0 249.976c-60.64 0-109.98-49.335-109.98-109.98 0-60.64 49.34-109.98 109.98-109.98 60.645 0 109.98 49.34 109.98 109.98 0 60.645-49.335 109.98-109.98 109.98zM399.344 66.285c-22.813 0-41.367 18.559-41.367 41.367 0 22.813 18.554 41.371 41.367 41.371s41.37-18.558 41.37-41.37-18.558-41.368-41.37-41.368zm0 52.719c-6.258 0-11.352-5.094-11.352-11.352 0-6.261 5.094-11.351 11.352-11.351 6.261 0 11.355 5.09 11.355 11.351 0 6.258-5.094 11.352-11.355 11.352zm0 0"/></symbol><symbol viewBox="0 0 22 22" id="phone" xmlns="http://www.w3.org/2000/svg"><path d="M21.99 17.36c.046.357-.063.667-.327.931l-3.097 3.074c-.14.155-.322.288-.547.396a2.258 2.258 0 01-.664.21 2.28 2.28 0 00-.14.012 3.18 3.18 0 01-.303.011c-.295 0-.772-.05-1.432-.151-.66-.101-1.467-.35-2.422-.745-.955-.396-2.038-.99-3.25-1.782-1.21-.792-2.499-1.879-3.865-3.26-1.087-1.072-1.988-2.097-2.702-3.075-.714-.978-1.289-1.883-1.723-2.713-.435-.831-.761-1.584-.978-2.26a11.985 11.985 0 01-.443-1.746c-.078-.49-.109-.874-.093-1.153.015-.28.023-.435.023-.466.031-.217.101-.438.21-.664.108-.225.24-.407.396-.547L3.73.335c.218-.218.466-.326.746-.326a.87.87 0 01.535.174c.155.117.287.26.396.431L7.9 5.342c.14.248.179.52.117.815a1.452 1.452 0 01-.396.745L6.478 8.044a.388.388 0 00-.081.15.575.575 0 00-.035.176c.062.326.202.698.42 1.118.186.372.473.826.86 1.362.39.536.94 1.153 1.655 1.851.698.715 1.32 1.27 1.863 1.666.543.395.997.687 1.362.873.365.186.645.299.839.338l.29.058a.553.553 0 00.152-.035.39.39 0 00.151-.082l1.328-1.35c.28-.249.605-.373.978-.373.264 0 .474.047.629.14h.023l4.495 2.655c.326.202.52.458.582.768z"/></symbol><symbol viewBox="0 0 63 64" id="play" xmlns="http://www.w3.org/2000/svg"><path d="M0 0h63v3H0zm0 61h63v3H0z"/><path d="M0 64V3h3v61zm60 0V3h3v61zM40.012 31.68l-13.684-7.604c-.158-.09-.294-.1-.407-.031-.113.069-.17.192-.17.37v15.17c0 .178.057.302.17.37.113.069.249.059.407-.03l13.684-7.605c.158-.09.237-.197.237-.32 0-.124-.079-.23-.237-.32z"/></symbol><symbol viewBox="0 0 100 53" id="roof" xmlns="http://www.w3.org/2000/svg"><path d="M99.884 43.168l-.002-.006-.002-.006L83.849 5.994c-.584-1.353-1.466-2.528-2.552-3.397A11.756 11.756 0 0073.97.024H34.9a1.43 1.43 0 00-.114 0h-6.988a1.465 1.465 0 000 2.93h5.233l-2.642 12.243a13.611 13.611 0 00-8.545-2.983 13.71 13.71 0 00-5.724 1.246l2.72-6.304c.396-.92.986-1.709 1.707-2.285 0 0 1.25-.872 1.938-1.174a1.465 1.465 0 00-1.183-2.681 11.687 11.687 0 00-2.583 1.566c-1.095.875-1.984 2.055-2.57 3.414L5.83 29.919c-.014.03-.027.06-.038.09L.119 43.156l-.002.006-.003.006c-.08.19-.117.388-.115.584v5.306a2.325 2.325 0 003.918 1.693 14.05 14.05 0 019.68-3.844 14.15 14.15 0 0110.419 4.591 2.327 2.327 0 003.432.001 14.146 14.146 0 0110.417-4.592 14.15 14.15 0 0110.418 4.591 2.328 2.328 0 003.432.001 14.145 14.145 0 0110.417-4.592 14.15 14.15 0 0110.42 4.591 2.328 2.328 0 003.43.001 14.04 14.04 0 017.18-4.22 1.465 1.465 0 10-.67-2.852 16.94 16.94 0 00-8.225 4.624 17.091 17.091 0 00-12.135-5.074 17.087 17.087 0 00-12.133 5.075 17.087 17.087 0 00-12.134-5.075 17.086 17.086 0 00-12.133 5.075 17.085 17.085 0 00-12.135-5.075 16.97 16.97 0 00-10.668 3.75v-3.46c5.784-6.686 16.179-6.417 21.662.389.02.016.318.442.926.53a1.462 1.462 0 001.37-.548 14.053 14.053 0 0110.978-5.245c4.054 0 7.872 1.55 11.022 5.297a1.297 1.297 0 00.175.172 1.468 1.468 0 001.96-.077 1.075 1.075 0 00.115-.128c.001 0 .002 0 .003-.002a14.054 14.054 0 0110.992-5.262c7.349 0 11.185 5.46 11.165 5.442 1.176 1.033 2.327-.369 2.086-.15 6.277-7.36 16.309-6.63 21.687-.418v3.46a16.908 16.908 0 00-8.145-3.564 1.465 1.465 0 00-.43 2.898 14.01 14.01 0 017.587 3.689 2.323 2.323 0 003.917-1.691v-5.307a1.44 1.44 0 00-.115-.584zM24.882 40.73c-5.404-4.787-13.327-5.632-19.62-2.097l3.144-7.29c2.35-2.576 5.705-4.05 9.244-4.05 3.565 0 6.904 1.473 9.254 4.06l-2.022 9.377zm2.748-12.74c-2.754-2.329-6.27-3.626-9.98-3.626-2.44 0-4.813.57-6.937 1.63l3.149-7.3c2.01-2.258 4.908-3.55 7.982-3.55 3.006 0 5.824 1.223 7.828 3.376l-2.042 9.47zm20.905 12.22a16.964 16.964 0 00-10.671-3.747c-3.53 0-6.902 1.075-9.72 3.037l1.738-8.057c2.354-2.643 5.728-4.15 9.333-4.15 3.598 0 6.966 1.5 9.32 4.13v8.788zm0-12.748a15.432 15.432 0 00-9.32-3.098c-3.004 0-5.88.85-8.326 2.41l1.743-8.085c2.013-2.258 4.898-3.546 7.982-3.546 3.052 0 5.91 1.261 7.92 3.478v8.84zm0-12.737a13.636 13.636 0 00-7.921-2.51c-2.509 0-4.915.67-6.996 1.908l2.41-11.17h12.507v11.772zM73.969 2.954c2.022 0 3.923.667 5.496 1.928.713.572 1.3 1.358 1.694 2.273l2.72 6.305a13.722 13.722 0 00-5.727-1.246 13.606 13.606 0 00-8.543 2.983L66.968 2.954h7zm-22.505 0h12.507l2.41 11.17a13.669 13.669 0 00-6.998-1.91c-2.889 0-5.642.89-7.919 2.51V2.955zm0 15.667c2.01-2.216 4.867-3.477 7.919-3.477 3.084 0 5.97 1.287 7.982 3.545l1.745 8.085a15.47 15.47 0 00-8.33-2.41c-3.42 0-6.672 1.102-9.316 3.098V18.62zm10.668 17.842a16.957 16.957 0 00-10.668 3.748v-8.787c2.354-2.63 5.72-4.13 9.317-4.13 3.607 0 6.981 1.506 9.336 4.149l1.737 8.058a16.973 16.973 0 00-9.722-3.038zm8.194-17.943c2.005-2.153 4.82-3.376 7.826-3.376 3.076 0 5.974 1.292 7.985 3.55l3.148 7.3a15.543 15.543 0 00-6.938-1.63c-3.71 0-7.225 1.297-9.978 3.626l-2.043-9.47zm4.79 22.21l-2.022-9.377c2.35-2.587 5.689-4.06 9.253-4.06 3.54 0 6.896 1.474 9.246 4.05l3.145 7.29c-6.179-3.469-14.108-2.788-19.621 2.097z"/><defs><linearGradient id="kpaint0_linear" x1="49.999" y1=".023" x2="49.999" y2="52.254" gradientUnits="userSpaceOnUse"><stop stop-color="#FE8338"/><stop offset="1" stop-color="#FD6326"/></linearGradient></defs></symbol><symbol viewBox="0 0 94 94" id="window" xmlns="http://www.w3.org/2000/svg"><path d="M89.138 81.424H4.764c-.863 0-1.563-.7-1.563-1.563V3.3A3.125 3.125 0 016.326.174h81.25a3.125 3.125 0 013.126 3.125v76.562c0 .864-.7 1.563-1.564 1.563zM6.326 78.299h81.25v-75H6.326v75z"/><path d="M43.826 75.174H11.014c-.864 0-1.563-.7-1.563-1.563V7.987c0-.864.7-1.563 1.563-1.563h32.812c.863 0 1.563.7 1.563 1.563V73.61c0 .863-.7 1.563-1.563 1.563zm-31.25-3.125h29.687v-62.5H12.576v62.5zM90.701 93.924h-87.5a3.125 3.125 0 01-3.125-3.125V86.11c0-.242.056-.481.164-.698l3.125-6.25c.265-.53.806-.864 1.399-.864h84.374a1.562 1.562 0 011.407.864l3.125 6.25c.105.217.159.456.156.698v4.688a3.125 3.125 0 01-3.125 3.125zm-87.5-7.444v4.319h87.5v-4.32l-2.528-5.055H5.73L3.2 86.48z"/><path d="M9.451 87.674H1.64a1.563 1.563 0 110-3.125h7.81a1.563 1.563 0 010 3.125zM92.263 87.674H15.701a1.563 1.563 0 010-3.125h76.562a1.563 1.563 0 010 3.125zM28.201 75.174c-.863 0-1.562-.7-1.562-1.563V7.987a1.563 1.563 0 113.125 0V73.61c0 .863-.7 1.563-1.563 1.563z"/><path d="M43.826 26.736H11.014a1.562 1.562 0 110-3.125h32.812a1.563 1.563 0 010 3.125zM43.826 42.361H11.014a1.562 1.562 0 110-3.125h32.812a1.562 1.562 0 010 3.125zM43.826 57.986H11.014a1.562 1.562 0 110-3.124h32.812a1.562 1.562 0 010 3.124zM82.888 75.174H50.076c-.862 0-1.562-.7-1.562-1.563V7.987c0-.864.7-1.563 1.562-1.563h32.812c.864 0 1.563.7 1.563 1.563V73.61c0 .863-.7 1.563-1.563 1.563zm-31.25-3.125h29.688v-62.5H51.64v62.5z"/><path d="M65.7 75.174c-.862 0-1.561-.7-1.561-1.563V7.987a1.562 1.562 0 113.125 0V73.61c0 .863-.7 1.563-1.563 1.563z"/><path d="M82.888 26.736H50.076a1.563 1.563 0 010-3.125h32.812a1.563 1.563 0 110 3.125zM82.888 42.361H50.076a1.563 1.563 0 010-3.125h32.812a1.562 1.562 0 110 3.125zM82.888 57.986H50.076a1.562 1.562 0 010-3.124h32.812a1.562 1.562 0 110 3.124z"/><defs><linearGradient id="lpaint0_linear" x1="46.951" y1=".174" x2="46.951" y2="81.424" gradientUnits="userSpaceOnUse"><stop stop-color="#FE8338"/><stop offset="1" stop-color="#FD6326"/></linearGradient><linearGradient id="lpaint1_linear" x1="27.42" y1="6.424" x2="27.42" y2="75.174" gradientUnits="userSpaceOnUse"><stop stop-color="#FE8338"/><stop offset="1" stop-color="#FD6326"/></linearGradient><linearGradient id="lpaint2_linear" x1="46.951" y1="78.299" x2="46.951" y2="93.924" gradientUnits="userSpaceOnUse"><stop stop-color="#FE8338"/><stop offset="1" stop-color="#FD6326"/></linearGradient><linearGradient id="lpaint3_linear" x1="5.545" y1="84.549" x2="5.545" y2="87.674" gradientUnits="userSpaceOnUse"><stop stop-color="#FE8338"/><stop offset="1" stop-color="#FD6326"/></linearGradient><linearGradient id="lpaint4_linear" x1="53.982" y1="84.549" x2="53.982" y2="87.674" gradientUnits="userSpaceOnUse"><stop stop-color="#FE8338"/><stop offset="1" stop-color="#FD6326"/></linearGradient><linearGradient id="lpaint5_linear" x1="28.201" y1="6.424" x2="28.201" y2="75.174" gradientUnits="userSpaceOnUse"><stop stop-color="#FE8338"/><stop offset="1" stop-color="#FD6326"/></linearGradient><linearGradient id="lpaint6_linear" x1="27.42" y1="23.611" x2="27.42" y2="26.736" gradientUnits="userSpaceOnUse"><stop stop-color="#FE8338"/><stop offset="1" stop-color="#FD6326"/></linearGradient><linearGradient id="lpaint7_linear" x1="27.42" y1="39.236" x2="27.42" y2="42.361" gradientUnits="userSpaceOnUse"><stop stop-color="#FE8338"/><stop offset="1" stop-color="#FD6326"/></linearGradient><linearGradient id="lpaint8_linear" x1="27.42" y1="54.862" x2="27.42" y2="57.986" gradientUnits="userSpaceOnUse"><stop stop-color="#FE8338"/><stop offset="1" stop-color="#FD6326"/></linearGradient><linearGradient id="lpaint9_linear" x1="66.482" y1="6.424" x2="66.482" y2="75.174" gradientUnits="userSpaceOnUse"><stop stop-color="#FE8338"/><stop offset="1" stop-color="#FD6326"/></linearGradient><linearGradient id="lpaint10_linear" x1="65.701" y1="6.424" x2="65.701" y2="75.174" gradientUnits="userSpaceOnUse"><stop stop-color="#FE8338"/><stop offset="1" stop-color="#FD6326"/></linearGradient><linearGradient id="lpaint11_linear" x1="66.482" y1="23.611" x2="66.482" y2="26.736" gradientUnits="userSpaceOnUse"><stop stop-color="#FE8338"/><stop offset="1" stop-color="#FD6326"/></linearGradient><linearGradient id="lpaint12_linear" x1="66.482" y1="39.236" x2="66.482" y2="42.361" gradientUnits="userSpaceOnUse"><stop stop-color="#FE8338"/><stop offset="1" stop-color="#FD6326"/></linearGradient><linearGradient id="lpaint13_linear" x1="66.482" y1="54.862" x2="66.482" y2="57.986" gradientUnits="userSpaceOnUse"><stop stop-color="#FE8338"/><stop offset="1" stop-color="#FD6326"/></linearGradient></defs></symbol></svg>